<?xml version="1.0" encoding="UTF-8"?>
<svg version="1.1" xmlns="http://www.w3.org/2000/svg" width="128" height="128">
<path d="M0 0 C42.24 0 84.48 0 128 0 C128 42.24 128 84.48 128 128 C85.76 128 43.52 128 0 128 C0 85.76 0 43.52 0 0 Z " fill="#0E1328" transform="translate(0,0)"/>
<path d="M0 0 C1.25541557 3.76624671 0.37061958 5.37188934 -1 9 C-0.01 9.33 0.98 9.66 2 10 C2 9.34 2 8.68 2 8 C2.66 8 3.32 8 4 8 C4.495 8.99 4.495 8.99 5 10 C5.33 9.01 5.66 8.02 6 7 C7.0725 7.20625 8.145 7.4125 9.25 7.625 C12.87619096 7.9876191 14.08291076 7.98362069 17 6 C16.01 7.65 15.02 9.3 14 11 C14.99 11.99 14.99 11.99 16 13 C16 13.99 16 14.98 16 16 C15.34 16 14.68 16 14 16 C14.495 16.99 14.495 16.99 15 18 C18.34373475 17.44271087 21.03312999 16.64826111 24 15 C22.79618552 17.49361571 21.54571278 19.68143083 20 22 C21.32 21.67 22.64 21.34 24 21 C24 21.66 24 22.32 24 23 C22.02 23.66 20.04 24.32 18 25 C18 25.66 18 26.32 18 27 C17.34 27 16.68 27 16 27 C16.99 30.465 16.99 30.465 18 34 C22.455 33.505 22.455 33.505 27 33 C25.39598746 36.20802508 22.19662773 36.63001669 19 38 C18.505 38.99 18.505 38.99 18 40 C20.31 40 22.62 40 25 40 C23.68 40.33 22.36 40.66 21 41 C21 41.66 21 42.32 21 43 C23.97 43 26.94 43 30 43 C30 43.66 30 44.32 30 45 C28.68 45 27.36 45 26 45 C25.67 45.99 25.34 46.98 25 48 C23.35 48 21.7 48 20 48 C20.79299706 50.17038477 20.79299706 50.17038477 22.84765625 50.6328125 C23.57855469 50.79523438 24.30945313 50.95765625 25.0625 51.125 C25.79597656 51.29257813 26.52945313 51.46015625 27.28515625 51.6328125 C27.85105469 51.75398438 28.41695313 51.87515625 29 52 C29 52.66 29 53.32 29 54 C26.36 54 23.72 54 21 54 C21 53.34 21 52.68 21 52 C19.68 52 18.36 52 17 52 C16.67 54.64 16.34 57.28 16 60 C17.98 60.99 19.96 61.98 22 63 C22 63.66 22 64.32 22 65 C20.8553125 64.5359375 20.8553125 64.5359375 19.6875 64.0625 C17.81210323 63.32106407 15.91315348 62.63771783 14 62 C13.7715451 64.24362573 13.7715451 64.24362573 16 66.125 C16.66 66.74375 17.32 67.3625 18 68 C16.35 68.33 14.7 68.66 13 69 C13.33 69.99 13.66 70.98 14 72 C13.01 72.495 13.01 72.495 12 73 C12.33 73.99 12.66 74.98 13 76 C11.68 76.33 10.36 76.66 9 77 C8.67 76.34 8.34 75.68 8 75 C7.01 76.98 7.01 76.98 6 79 C6 77.35 6 75.7 6 74 C5.01 74 4.02 74 3 74 C3 75.32 3 76.64 3 78 C2.34 78 1.68 78 1 78 C0.67 77.34 0.34 76.68 0 76 C-0.45375 76.495 -0.9075 76.99 -1.375 77.5 C-3 79 -3 79 -5 79 C-5 78.34 -5 77.68 -5 77 C-5.99 77.66 -6.98 78.32 -8 79 C-10.82306514 79.36238103 -13.54023666 79.61099234 -16.375 79.75 C-17.17703857 79.79092773 -17.97907715 79.83185547 -18.80541992 79.87402344 C-27.84310197 80.22367152 -36.20163772 79.88572095 -44 75 C-44.66 75 -45.32 75 -46 75 C-46.66 75.99 -47.32 76.98 -48 78 C-48 76.68 -48 75.36 -48 74 C-52.455 74.495 -52.455 74.495 -57 75 C-57.66 73.68 -58.32 72.36 -59 71 C-57.68 71 -56.36 71 -55 71 C-55 70.01 -55 69.02 -55 68 C-55.66 68 -56.32 68 -57 68 C-57 67.34 -57 66.68 -57 66 C-57.99 66 -58.98 66 -60 66 C-59.34 64.68 -58.68 63.36 -58 62 C-60.64 62.99 -63.28 63.98 -66 65 C-66 64.34 -66 63.68 -66 63 C-63.5 61.375 -63.5 61.375 -61 60 C-61.33 57.36 -61.66 54.72 -62 52 C-62.7734375 52.495 -62.7734375 52.495 -63.5625 53 C-66.78026512 54.32010877 -69.5570528 54.13242105 -73 54 C-71.68 53.34 -70.36 52.68 -69 52 C-69 50.02 -69 48.04 -69 46 C-67.68 46 -66.36 46 -65 46 C-65 45.34 -65 44.68 -65 44 C-67.97 44 -70.94 44 -74 44 C-74 43.67 -74 43.34 -74 43 C-71.36 43 -68.72 43 -66 43 C-66 42.34 -66 41.68 -66 41 C-66.99 40.67 -67.98 40.34 -69 40 C-67.02 40 -65.04 40 -63 40 C-65.50683077 36.23975384 -67.86493934 35.60807914 -72 34 C-72 33.67 -72 33.34 -72 33 C-70.88625 32.773125 -69.7725 32.54625 -68.625 32.3125 C-64.83961627 31.39376342 -64.83961627 31.39376342 -63.5625 28.375 C-63.376875 27.59125 -63.19125 26.8075 -63 26 C-64.65 25.01 -66.3 24.02 -68 23 C-67.67 22.34 -67.34 21.68 -67 21 C-66.071875 21.515625 -65.14375 22.03125 -64.1875 22.5625 C-61.07242053 24.40096246 -61.07242053 24.40096246 -58 23 C-56.21821029 19.28793811 -56.97376583 14.86752432 -58 11 C-59.90324013 8.05336759 -59.90324013 8.05336759 -62 6 C-61.1646875 6.4640625 -61.1646875 6.4640625 -60.3125 6.9375 C-57.84635904 8.07059179 -55.66991479 8.54416089 -53 9 C-51.33333333 9.33333333 -49.66666667 9.66666667 -48 10 C-48 10.66 -48 11.32 -48 12 C-47.34 12 -46.68 12 -46 12 C-45.67 11.01 -45.34 10.02 -45 9 C-34.87830926 2.64409256 -24.48840581 2.67052835 -12.9375 3.375 C-11.70902344 3.44460937 -10.48054688 3.51421875 -9.21484375 3.5859375 C-6 4 -6 4 -3 6 C-2.5359375 4.7934375 -2.5359375 4.7934375 -2.0625 3.5625 C-1 1 -1 1 0 0 Z " fill="#4D7AA6" transform="translate(87,16)"/>
<path d="M0 0 C1.25541557 3.76624671 0.37061958 5.37188934 -1 9 C-0.01 9.33 0.98 9.66 2 10 C2 9.34 2 8.68 2 8 C2.66 8 3.32 8 4 8 C4.495 8.99 4.495 8.99 5 10 C5.33 9.01 5.66 8.02 6 7 C7.0725 7.20625 8.145 7.4125 9.25 7.625 C12.87619096 7.9876191 14.08291076 7.98362069 17 6 C16.01 7.65 15.02 9.3 14 11 C14.99 11.99 14.99 11.99 16 13 C16 13.99 16 14.98 16 16 C15.34 16 14.68 16 14 16 C14.495 16.99 14.495 16.99 15 18 C18.34373475 17.44271087 21.03312999 16.64826111 24 15 C22.79618552 17.49361571 21.54571278 19.68143083 20 22 C21.32 21.67 22.64 21.34 24 21 C24 21.66 24 22.32 24 23 C22.02 23.66 20.04 24.32 18 25 C18 25.66 18 26.32 18 27 C17.34 27 16.68 27 16 27 C16.99 30.465 16.99 30.465 18 34 C22.455 33.505 22.455 33.505 27 33 C25.39598746 36.20802508 22.19662773 36.63001669 19 38 C18.505 38.99 18.505 38.99 18 40 C20.31 40 22.62 40 25 40 C23.68 40.33 22.36 40.66 21 41 C21 41.66 21 42.32 21 43 C23.97 43 26.94 43 30 43 C30 43.66 30 44.32 30 45 C28.68 45 27.36 45 26 45 C25.67 45.99 25.34 46.98 25 48 C23.35 48 21.7 48 20 48 C20.79299706 50.17038477 20.79299706 50.17038477 22.84765625 50.6328125 C23.57855469 50.79523438 24.30945313 50.95765625 25.0625 51.125 C25.79597656 51.29257813 26.52945313 51.46015625 27.28515625 51.6328125 C27.85105469 51.75398438 28.41695313 51.87515625 29 52 C29 52.66 29 53.32 29 54 C26.36 54 23.72 54 21 54 C21 53.34 21 52.68 21 52 C19.68 52 18.36 52 17 52 C16.67 54.64 16.34 57.28 16 60 C17.98 60.99 19.96 61.98 22 63 C22 63.66 22 64.32 22 65 C20.8553125 64.5359375 20.8553125 64.5359375 19.6875 64.0625 C17.81210323 63.32106407 15.91315348 62.63771783 14 62 C13.7715451 64.24362573 13.7715451 64.24362573 16 66.125 C16.66 66.74375 17.32 67.3625 18 68 C16.35 68.33 14.7 68.66 13 69 C13.33 69.99 13.66 70.98 14 72 C13.01 72.495 13.01 72.495 12 73 C12.33 73.99 12.66 74.98 13 76 C11.68 76.33 10.36 76.66 9 77 C8.67 76.34 8.34 75.68 8 75 C7.01 76.98 7.01 76.98 6 79 C6 77.35 6 75.7 6 74 C5.01 74 4.02 74 3 74 C3 75.32 3 76.64 3 78 C2.34 78 1.68 78 1 78 C0.67 77.34 0.34 76.68 0 76 C-0.45375 76.495 -0.9075 76.99 -1.375 77.5 C-3 79 -3 79 -5 79 C-5 78.34 -5 77.68 -5 77 C-5.99 77.66 -6.98 78.32 -8 79 C-10.82306514 79.36238103 -13.54023666 79.61099234 -16.375 79.75 C-17.17703857 79.79092773 -17.97907715 79.83185547 -18.80541992 79.87402344 C-27.84310197 80.22367152 -36.20163772 79.88572095 -44 75 C-44.66 75 -45.32 75 -46 75 C-46.66 75.99 -47.32 76.98 -48 78 C-48 76.68 -48 75.36 -48 74 C-52.455 74.495 -52.455 74.495 -57 75 C-57.66 73.68 -58.32 72.36 -59 71 C-57.68 71 -56.36 71 -55 71 C-55 70.01 -55 69.02 -55 68 C-55.66 68 -56.32 68 -57 68 C-57 67.34 -57 66.68 -57 66 C-57.99 66 -58.98 66 -60 66 C-59.34 64.68 -58.68 63.36 -58 62 C-60.64 62.99 -63.28 63.98 -66 65 C-66 64.34 -66 63.68 -66 63 C-63.5 61.375 -63.5 61.375 -61 60 C-61.33 57.36 -61.66 54.72 -62 52 C-62.7734375 52.495 -62.7734375 52.495 -63.5625 53 C-66.78026512 54.32010877 -69.5570528 54.13242105 -73 54 C-71.68 53.34 -70.36 52.68 -69 52 C-69 50.02 -69 48.04 -69 46 C-67.68 46 -66.36 46 -65 46 C-65 45.34 -65 44.68 -65 44 C-67.97 44 -70.94 44 -74 44 C-74 43.67 -74 43.34 -74 43 C-71.36 43 -68.72 43 -66 43 C-66 42.34 -66 41.68 -66 41 C-66.99 40.67 -67.98 40.34 -69 40 C-67.02 40 -65.04 40 -63 40 C-65.50683077 36.23975384 -67.86493934 35.60807914 -72 34 C-72 33.67 -72 33.34 -72 33 C-70.88625 32.773125 -69.7725 32.54625 -68.625 32.3125 C-64.83961627 31.39376342 -64.83961627 31.39376342 -63.5625 28.375 C-63.376875 27.59125 -63.19125 26.8075 -63 26 C-64.65 25.01 -66.3 24.02 -68 23 C-67.67 22.34 -67.34 21.68 -67 21 C-66.071875 21.515625 -65.14375 22.03125 -64.1875 22.5625 C-61.07242053 24.40096246 -61.07242053 24.40096246 -58 23 C-56.21821029 19.28793811 -56.97376583 14.86752432 -58 11 C-59.90324013 8.05336759 -59.90324013 8.05336759 -62 6 C-61.1646875 6.4640625 -61.1646875 6.4640625 -60.3125 6.9375 C-57.84635904 8.07059179 -55.66991479 8.54416089 -53 9 C-51.33333333 9.33333333 -49.66666667 9.66666667 -48 10 C-48 10.66 -48 11.32 -48 12 C-47.34 12 -46.68 12 -46 12 C-45.67 11.01 -45.34 10.02 -45 9 C-34.87830926 2.64409256 -24.48840581 2.67052835 -12.9375 3.375 C-11.70902344 3.44460937 -10.48054688 3.51421875 -9.21484375 3.5859375 C-6 4 -6 4 -3 6 C-2.5359375 4.7934375 -2.5359375 4.7934375 -2.0625 3.5625 C-1 1 -1 1 0 0 Z M-14 5 C-13.01 5.66 -12.02 6.32 -11 7 C-16.70985978 7.74016701 -22.24186425 8.10469338 -28 8 C-28.33 8.99 -28.66 9.98 -29 11 C-30.32 11 -31.64 11 -33 11 C-33 10.34 -33 9.68 -33 9 C-37.95 10.485 -37.95 10.485 -43 12 C-42.67 12.99 -42.34 13.98 -42 15 C-42.99 15.33 -43.98 15.66 -45 16 C-45.165 16.66 -45.33 17.32 -45.5 18 C-45.665 18.66 -45.83 19.32 -46 20 C-46.99 20.33 -47.98 20.66 -49 21 C-53.02317367 26.67064538 -56 33.00512759 -56 40 C-56.66 40 -57.32 40 -58 40 C-58 40.99 -58 41.98 -58 43 C-58.99 43.495 -58.99 43.495 -60 44 C-59.34 44 -58.68 44 -58 44 C-58 44.66 -58 45.32 -58 46 C-57.34 46 -56.68 46 -56 46 C-56 46.99 -56 47.98 -56 49 C-55.34 49 -54.68 49 -54 49 C-54.0825 50.175625 -54.165 51.35125 -54.25 52.5625 C-54.28424585 57.36548011 -52.62933968 60.05599047 -50 64 C-50.66 64 -51.32 64 -52 64 C-52.66 65.32 -53.32 66.64 -54 68 C-53.29875 68.01417969 -52.5975 68.02835938 -51.875 68.04296875 C-45.72324862 68.35222799 -41.91313622 69.25697128 -36.890625 72.7890625 C-30.68328051 76.764841 -22.44456945 76.92118913 -15.41796875 75.46484375 C-10.26517447 74.05110859 -6.36294177 72.14537663 -2 69 C-1.17113281 68.73316406 -0.34226563 68.46632812 0.51171875 68.19140625 C3.74653612 66.64255335 4.19103339 65.29111605 5.5 62 C7.09330088 58.130555 8.79501399 54.47807317 10.8125 50.8125 C13.16170371 46.23811886 13.27193065 43.07603873 13 38 C13.99 37.01 13.99 37.01 15 36 C13.35 35.67 11.7 35.34 10 35 C10.33 34.34 10.66 33.68 11 33 C11.66 33 12.32 33 13 33 C11.66781889 25.28219624 11.66781889 25.28219624 9 18 C7.68 18.99 6.36 19.98 5 21 C5 19.02 5 17.04 5 15 C6.65 15.66 8.3 16.32 10 17 C9.01 14.525 9.01 14.525 8 12 C4.04 12 0.08 12 -4 12 C-3.67 10.35 -3.34 8.7 -3 7 C-6.87684087 5.80712589 -9.91621923 5 -14 5 Z " fill="#33527B" transform="translate(87,16)"/>
<path d="M0 0 C5.62201387 4.45883859 6.74673728 10.40734367 7.546875 17.2265625 C7.68627423 18.75439762 7.81641274 20.28310464 7.9375 21.8125 C8.00735107 22.55395264 8.07720215 23.29540527 8.14916992 24.05932617 C8.36056185 27.60144958 8.40059992 29.49713723 6.1484375 32.32421875 C5.08496094 33.15373047 5.08496094 33.15373047 4 34 C3.236875 34.99 2.47375 35.98 1.6875 37 C-1.05165024 40.24242785 -3.85144817 42.83275513 -8 44 C-12.06154608 44.02544828 -15.98756794 43.60614737 -20 43 C-19.67 41.02 -19.34 39.04 -19 37 C-19.66 37 -20.32 37 -21 37 C-21 38.98 -21 40.96 -21 43 C-28.51765403 43.62647117 -33.03708933 40.97527378 -39.1875 36.875 C-43.43835916 33.10163461 -46.52016686 27.42564417 -47.30859375 21.796875 C-47.3125 19.875 -47.3125 19.875 -47 17 C-45.68 17.33 -44.36 17.66 -43 18 C-43.66 18 -44.32 18 -45 18 C-45 18.66 -45 19.32 -45 20 C-43.68 19.67 -42.36 19.34 -41 19 C-40.34 21.97 -39.68 24.94 -39 28 C-35.29208456 28.14592789 -31.58491274 28.23427895 -27.875 28.3125 C-26.82828125 28.35439453 -25.7815625 28.39628906 -24.703125 28.43945312 C-18.0506069 28.62902017 -18.0506069 28.62902017 -12.34375 25.625 C-10.3812849 23.42703909 -9.01623313 21.74382944 -8 19 C-12.96911366 20.12697043 -12.96911366 20.12697043 -17 23 C-23.14231015 23.6700702 -23.14231015 23.6700702 -26 21.4375 C-27.43135511 17.94857191 -26.933966 15.60244028 -26 12 C-22.1496895 9.43312633 -20.41430237 10.16711276 -16 11 C-15.67 11.99 -15.34 12.98 -15 14 C-12.69 14 -10.38 14 -8 14 C-8.495 12.02 -8.495 12.02 -9 10 C-7.49609375 11.1953125 -7.49609375 11.1953125 -6 13 C-5.56600937 17.65553588 -6.37192897 21.86464083 -8.625 25.9375 C-13.82420564 30.45259964 -19.37598178 31.41894577 -26 32 C-22.99833199 34.61289776 -21.20372689 35.36930244 -17.234375 35.29296875 C-16.34492187 35.28330078 -15.45546875 35.27363281 -14.5390625 35.26367188 C-13.61867187 35.23853516 -12.69828125 35.21339844 -11.75 35.1875 C-10.81414062 35.17396484 -9.87828125 35.16042969 -8.9140625 35.14648438 C-6.60878673 35.11119954 -4.3046894 35.06190281 -2 35 C-0.82625787 31.47877361 -0.6021319 28.11144326 -0.375 24.4375 C-0.32923828 23.72094238 -0.28347656 23.00438477 -0.23632812 22.26611328 C0.02898541 17.4371894 -0.16803899 12.86260655 -0.80859375 8.0625 C-1.06881213 5.25851422 -0.6458542 2.72693997 0 0 Z " fill="#1C264E" transform="translate(85,43)"/>
<path d="M0 0 C0.66 0 1.32 0 2 0 C2.99 2.64 3.98 5.28 5 8 C9.455 7.505 9.455 7.505 14 7 C12.39598746 10.20802508 9.19662773 10.63001669 6 12 C5.67 12.66 5.34 13.32 5 14 C7.31 14 9.62 14 12 14 C10.68 14.33 9.36 14.66 8 15 C8 15.66 8 16.32 8 17 C10.97 17 13.94 17 17 17 C17 17.66 17 18.32 17 19 C15.68 19 14.36 19 13 19 C12.505 20.485 12.505 20.485 12 22 C10.35 22 8.7 22 7 22 C7.79299706 24.17038477 7.79299706 24.17038477 9.84765625 24.6328125 C10.57855469 24.79523438 11.30945313 24.95765625 12.0625 25.125 C12.79597656 25.29257813 13.52945313 25.46015625 14.28515625 25.6328125 C14.85105469 25.75398438 15.41695313 25.87515625 16 26 C16 26.66 16 27.32 16 28 C13.36 28 10.72 28 8 28 C8 27.34 8 26.68 8 26 C6.68 26 5.36 26 4 26 C3.67 28.64 3.34 31.28 3 34 C4.98 34.99 6.96 35.98 9 37 C9 37.66 9 38.32 9 39 C8.236875 38.690625 7.47375 38.38125 6.6875 38.0625 C4.81210323 37.32106407 2.91315348 36.63771783 1 36 C0.7715451 38.24362573 0.7715451 38.24362573 3 40.125 C3.99 41.053125 3.99 41.053125 5 42 C3.35 42.33 1.7 42.66 0 43 C0.33 43.99 0.66 44.98 1 46 C0.01 46.495 0.01 46.495 -1 47 C-0.67 47.99 -0.34 48.98 0 50 C-1.32 50.33 -2.64 50.66 -4 51 C-4.33 50.34 -4.66 49.68 -5 49 C-5.66 50.32 -6.32 51.64 -7 53 C-7 51.35 -7 49.7 -7 48 C-7.99 48 -8.98 48 -10 48 C-10 49.32 -10 50.64 -10 52 C-10.66 52 -11.32 52 -12 52 C-12.33 51.34 -12.66 50.68 -13 50 C-13.45375 50.495 -13.9075 50.99 -14.375 51.5 C-16 53 -16 53 -18 53 C-18 52.34 -18 51.68 -18 51 C-18.99 51.66 -19.98 52.32 -21 53 C-23.82306514 53.36238103 -26.54023666 53.61099234 -29.375 53.75 C-30.17703857 53.79092773 -30.97907715 53.83185547 -31.80541992 53.87402344 C-40.84310197 54.22367152 -49.20163772 53.88572095 -57 49 C-57.66 49 -58.32 49 -59 49 C-59.66 49.99 -60.32 50.98 -61 52 C-61 50.68 -61 49.36 -61 48 C-65.455 48.495 -65.455 48.495 -70 49 C-70.66 47.68 -71.32 46.36 -72 45 C-70.68 45 -69.36 45 -68 45 C-68 44.01 -68 43.02 -68 42 C-68.66 42 -69.32 42 -70 42 C-70 41.34 -70 40.68 -70 40 C-56.7263508 41.14376116 -56.7263508 41.14376116 -51.0625 45 C-44.29960159 49.41658672 -36.24624249 50.08734527 -28.41796875 48.46484375 C-23.26517447 47.05110859 -19.36294177 45.14537663 -15 42 C-14.17242187 41.75765625 -13.34484375 41.5153125 -12.4921875 41.265625 C-8.96569925 39.47474382 -8.65780683 37.50743602 -7.4375 33.8125 C-4.9452145 26.61957476 -4.9452145 26.61957476 -2.6875 23.3125 C-0.39482721 18.81206823 -0.64118933 14.9535806 -1 10 C-1.99 9.505 -1.99 9.505 -3 9 C-2.67 7.68 -2.34 6.36 -2 5 C-2 5.66 -2 6.32 -2 7 C-1.34 7 -0.68 7 0 7 C1.04449911 3.86650268 0.93423645 3.01031744 0 0 Z " fill="#272B63" transform="translate(100,42)"/>
<path d="M0 0 C1.8203125 1.63671875 1.8203125 1.63671875 3 3 C1.02 3 -0.96 3 -3 3 C-2.34 3.66 -1.68 4.32 -1 5 C-5.68738665 4.09276387 -10.34193744 3.0452733 -15 2 C-14.505 5.465 -14.505 5.465 -14 9 C-9.05 9 -4.1 9 1 9 C1.495 9.99 1.495 9.99 2 11 C-2.62 11 -7.24 11 -12 11 C-11.505 12.485 -11.505 12.485 -11 14 C-11.65226562 14.08636719 -12.30453125 14.17273438 -12.9765625 14.26171875 C-19.14670666 15.25367408 -22.66348171 16.4466558 -27 21 C-29.34788855 24.3541265 -29.53730704 27.98999433 -30 32 C-30.33 32 -30.66 32 -31 32 C-31.63373083 23.91993186 -31.63373083 23.91993186 -29.0625 20.1875 C-28.381875 19.465625 -27.70125 18.74375 -27 18 C-26.22166466 15.81785432 -26.22166466 15.81785432 -26 14 C-27.65 13.34 -29.3 12.68 -31 12 C-31 12.66 -31 13.32 -31 14 C-31.66 14 -32.32 14 -33 14 C-32.87431641 14.93972656 -32.87431641 14.93972656 -32.74609375 15.8984375 C-32.64425781 16.71570313 -32.54242188 17.53296875 -32.4375 18.375 C-32.33308594 19.18710937 -32.22867188 19.99921875 -32.12109375 20.8359375 C-32 23 -32 23 -33 25 C-33.22858114 27.0374763 -33.41024278 29.08040303 -33.5625 31.125 C-33.64628906 32.22070312 -33.73007812 33.31640625 -33.81640625 34.4453125 C-33.90728516 35.70988281 -33.90728516 35.70988281 -34 37 C-34.33 37 -34.66 37 -35 37 C-35.08694042 32.89596637 -35.14037149 28.79216871 -35.1875 24.6875 C-35.21263672 23.52025391 -35.23777344 22.35300781 -35.26367188 21.15039062 C-35.27333984 20.03212891 -35.28300781 18.91386719 -35.29296875 17.76171875 C-35.3086792 16.73006592 -35.32438965 15.69841309 -35.34057617 14.63549805 C-35 12 -35 12 -33.609375 10.15820312 C-30.65282796 8.03049391 -27.52358456 8.82670896 -24 9 C-23.67 8.01 -23.34 7.02 -23 6 C-22.67 6.33 -22.34 6.66 -22 7 C-21.67 5.68 -21.34 4.36 -21 3 C-25.95 4.485 -25.95 4.485 -31 6 C-30.34 5.01 -29.68 4.02 -29 3 C-34.68732835 6.6808851 -38.32060463 10.39744807 -41.7734375 16.2421875 C-42.17820312 16.82226562 -42.58296875 17.40234375 -43 18 C-43.66 18 -44.32 18 -45 18 C-44.8604947 21.39612414 -44.71227678 24.79181458 -44.5625 28.1875 C-44.52318359 29.14720703 -44.48386719 30.10691406 -44.44335938 31.09570312 C-44.38051758 32.49272461 -44.38051758 32.49272461 -44.31640625 33.91796875 C-44.27974854 34.77156982 -44.24309082 35.6251709 -44.20532227 36.50463867 C-43.99468906 39.06454594 -43.55158464 41.49333243 -43 44 C-45.7972908 41.93243723 -46.02692273 40.85559629 -46.6875 37.3125 C-46.790625 36.219375 -46.89375 35.12625 -47 34 C-47.66 34 -48.32 34 -49 34 C-49 33.01 -49 32.02 -49 31 C-49.66 31 -50.32 31 -51 31 C-51 30.34 -51 29.68 -51 29 C-51.66 28.67 -52.32 28.34 -53 28 C-52.34 28 -51.68 28 -51 28 C-51 27.01 -51 26.02 -51 25 C-50.34 25 -49.68 25 -49 25 C-48.896875 24.360625 -48.79375 23.72125 -48.6875 23.0625 C-47.18888499 16.38685132 -45.29462059 10.40290977 -41 5 C-40.34 5 -39.68 5 -39 5 C-38.34 3.68 -37.68 2.36 -37 1 C-35.68 1 -34.36 1 -33 1 C-30.48416723 0.17922379 -30.48416723 0.17922379 -27.9375 -0.9375 C-17.79171405 -5.19415305 -10.04171342 -4.92208576 0 0 Z " fill="#6298BE" transform="translate(80,31)"/>
<path d="M0 0 C-0.33 0.33 -0.66 0.66 -1 1 C0.98 0.67 2.96 0.34 5 0 C4.67 1.65 4.34 3.3 4 5 C3.30132812 5.12117188 2.60265625 5.24234375 1.8828125 5.3671875 C0.97273438 5.53476562 0.06265625 5.70234375 -0.875 5.875 C-2.23238281 6.11863281 -2.23238281 6.11863281 -3.6171875 6.3671875 C-6.16505988 6.83044703 -6.16505988 6.83044703 -8 9 C-8.37173016 11.6182767 -8.37173016 11.6182767 -8.4140625 14.6640625 C-8.47207031 16.34628906 -8.47207031 16.34628906 -8.53125 18.0625 C-8.57765625 19.8259375 -8.57765625 19.8259375 -8.625 21.625 C-8.68300781 23.40003906 -8.68300781 23.40003906 -8.7421875 25.2109375 C-8.83668845 28.14046691 -8.92224558 31.06998597 -9 34 C-9.33 34 -9.66 34 -10 34 C-10 32.02 -10 30.04 -10 28 C-11.32 28.33 -12.64 28.66 -14 29 C-14 28.34 -14 27.68 -14 27 C-14.66 26.67 -15.32 26.34 -16 26 C-14.99567109 34.29437149 -12.58656978 40.96460599 -6.1796875 46.6015625 C-1.18147775 50.06186156 4.04343237 51.18219256 10 52 C10 50.02 10 48.04 10 46 C10.66 46 11.32 46 12 46 C11.67 47.98 11.34 49.96 11 52 C12.89510699 52.08160748 14.79124504 52.13946459 16.6875 52.1875 C18.27111328 52.23970703 18.27111328 52.23970703 19.88671875 52.29296875 C23.36460416 51.9656897 25.10033435 50.8535516 28 49 C28.99 49.495 28.99 49.495 30 50 C25.36421874 55.71746355 19.90645459 57.39086533 12.703125 58.28515625 C5.70274156 58.57063288 -1.23476791 57.00038066 -6.9375 52.875 C-11.40410267 50.14034531 -15.84982548 50.18328023 -21 50 C-20.34 48.68 -19.68 47.36 -19 46 C-18.34 46 -17.68 46 -17 46 C-17.680625 44.9275 -18.36125 43.855 -19.0625 42.75 C-21.03471002 39.33842267 -21.03471002 39.33842267 -20.75 36.5625 C-20.5025 36.046875 -20.255 35.53125 -20 35 C-19.34 36.32 -18.68 37.64 -18 39 C-18.495 37.515 -18.495 37.515 -19 36 C-19.08143855 34.37280518 -19.1075302 32.74248281 -19.09765625 31.11328125 C-19.09443359 30.17548828 -19.09121094 29.23769531 -19.08789062 28.27148438 C-19.07951172 27.29501953 -19.07113281 26.31855469 -19.0625 25.3125 C-19.05798828 24.32443359 -19.05347656 23.33636719 -19.04882812 22.31835938 C-19.03704303 19.87884526 -19.02059011 17.43945311 -19 15 C-18.34 15 -17.68 15 -17 15 C-16.814375 14.34 -16.62875 13.68 -16.4375 13 C-13.63771742 7.15697548 -7.19582432 -2.39860811 0 0 Z " fill="#43689E" transform="translate(54,34)"/>
<path d="M0 0 C1.44439453 -0.04350586 1.44439453 -0.04350586 2.91796875 -0.08789062 C3.84222656 -0.09626953 4.76648438 -0.10464844 5.71875 -0.11328125 C6.56373047 -0.12786377 7.40871094 -0.14244629 8.27929688 -0.1574707 C10.5 0.3125 10.5 0.3125 12.28051758 2.20532227 C14.26102034 5.6274883 13.69456655 8.4211689 13.5 12.3125 C14.49 12.6425 15.48 12.9725 16.5 13.3125 C15.51 13.3125 14.52 13.3125 13.5 13.3125 C13.54640625 14.34890625 13.5928125 15.3853125 13.640625 16.453125 C13.67815275 17.82288779 13.71455184 19.19268182 13.75 20.5625 C13.80027344 21.58537109 13.80027344 21.58537109 13.8515625 22.62890625 C13.91401724 25.84532513 13.69902831 27.97794035 12.04296875 30.76171875 C8.26541662 33.06538725 4.90730038 32.93432659 0.5625 32.875 C-0.63536133 32.91077148 -0.63536133 32.91077148 -1.85742188 32.94726562 C-6.33866044 32.9361275 -7.98641059 32.73711086 -11.56640625 29.77734375 C-12.20449219 28.96394531 -12.84257813 28.15054688 -13.5 27.3125 C-12.28763672 27.14814453 -12.28763672 27.14814453 -11.05078125 26.98046875 C-9.98214844 26.82191406 -8.91351563 26.66335937 -7.8125 26.5 C-6.75675781 26.34917969 -5.70101562 26.19835937 -4.61328125 26.04296875 C-1.33741537 25.27435279 0.79747405 24.30133072 3.5 22.3125 C5.92739389 17.87622841 6.98125489 14.36567631 6.5 9.3125 C6.17 8.9825 5.84 8.6525 5.5 8.3125 C5.5 8.9725 5.5 9.6325 5.5 10.3125 C2.1875 10.5 2.1875 10.5 -1.5 10.3125 C-1.995 9.796875 -2.49 9.28125 -3 8.75 C-3.495 8.275625 -3.99 7.80125 -4.5 7.3125 C-8.14541845 7.54727199 -8.14541845 7.54727199 -11.5 8.3125 C-12.16 10.2925 -12.82 12.2725 -13.5 14.3125 C-13.83 14.3125 -14.16 14.3125 -14.5 14.3125 C-14.17 11.6725 -13.84 9.0325 -13.5 6.3125 C-14.49 6.3125 -15.48 6.3125 -16.5 6.3125 C-16.83 7.3025 -17.16 8.2925 -17.5 9.3125 C-17.83 8.3225 -18.16 7.3325 -18.5 6.3125 C-12.4952361 -0.01684573 -8.31946586 0.08352877 0 0 Z " fill="#7567BC" transform="translate(71.5,46.6875)"/>
<path d="M0 0 C-0.47061768 4.23555908 -0.9110104 6.13982445 -4 9 C-7.52946326 14.40449062 -9.34824074 19.78087614 -11 26 C-11.66 26 -12.32 26 -13 26 C-13 27.98 -13 29.96 -13 32 C-12.34 32 -11.68 32 -11 32 C-11 32.99 -11 33.98 -11 35 C-10.34 35 -9.68 35 -9 35 C-8.87882812 35.66386719 -8.75765625 36.32773438 -8.6328125 37.01171875 C-7.77452292 41.53424459 -6.96028689 45.79938524 -5 50 C-5.66 50 -6.32 50 -7 50 C-7.33 50.99 -7.66 51.98 -8 53 C-8.66 52.34 -9.32 51.68 -10 51 C-12.60280568 51.32041397 -12.60280568 51.32041397 -15 52 C-14.34 50.68 -13.68 49.36 -13 48 C-15.64 48.99 -18.28 49.98 -21 51 C-21 50.34 -21 49.68 -21 49 C-18.5 47.375 -18.5 47.375 -16 46 C-16.33 43.36 -16.66 40.72 -17 38 C-17.7734375 38.495 -17.7734375 38.495 -18.5625 39 C-21.78026512 40.32010877 -24.5570528 40.13242105 -28 40 C-26.68 39.34 -25.36 38.68 -24 38 C-24 36.02 -24 34.04 -24 32 C-22.68 32 -21.36 32 -20 32 C-20 31.34 -20 30.68 -20 30 C-22.97 30 -25.94 30 -29 30 C-29 29.67 -29 29.34 -29 29 C-26.36 29 -23.72 29 -21 29 C-21 28.34 -21 27.68 -21 27 C-21.99 26.67 -22.98 26.34 -24 26 C-22.02 26 -20.04 26 -18 26 C-19.32 24.02 -20.64 22.04 -22 20 C-20.35 20.33 -18.7 20.66 -17 21 C-16.34 18.03 -15.68 15.06 -15 12 C-13.35 12.33 -11.7 12.66 -10 13 C-10 12.01 -10 11.02 -10 10 C-8.68 10 -7.36 10 -6 10 C-5.896875 8.906875 -5.79375 7.81375 -5.6875 6.6875 C-5 3 -5 3 -3.5625 1.0625 C-2 0 -2 0 0 0 Z " fill="#324F7C" transform="translate(42,30)"/>
<path d="M0 0 C0.33 0.99 0.66 1.98 1 3 C3.31 3 5.62 3 8 3 C7.67 1.68 7.34 0.36 7 -1 C8.50390625 0.1953125 8.50390625 0.1953125 10 2 C10.43399063 6.65553588 9.62807103 10.86464083 7.375 14.9375 C2.17579436 19.45259964 -3.37598178 20.41894577 -10 21 C-9.34 21.99 -8.68 22.98 -8 24 C-9.80271782 25.80271782 -12.44408749 25.21502284 -14.875 25.25 C-16.47988281 25.28867188 -16.47988281 25.28867188 -18.1171875 25.328125 C-21 25 -21 25 -22.8828125 23.796875 C-24.34454782 21.44583217 -24.07957669 19.72118888 -24 17 C-22.95658447 17.03927612 -22.95658447 17.03927612 -21.89208984 17.0793457 C-18.71995915 17.18370949 -15.54819022 17.2484506 -12.375 17.3125 C-10.73337891 17.3753418 -10.73337891 17.3753418 -9.05859375 17.43945312 C-2.20746923 17.66272043 -2.20746923 17.66272043 3.6875 14.625 C5.62150827 12.42963926 6.99023332 10.72637004 8 8 C3.03088634 9.12697043 3.03088634 9.12697043 -1 12 C-7.14231015 12.6700702 -7.14231015 12.6700702 -10 10.4375 C-11.43135511 6.94857191 -10.933966 4.60244028 -10 1 C-6.1496895 -1.56687367 -4.41430237 -0.83288724 0 0 Z " fill="#232D59" transform="translate(69,54)"/>
<path d="M0 0 C1.25541557 3.76624671 0.37061958 5.37188934 -1 9 C-0.01 9.33 0.98 9.66 2 10 C2 9.34 2 8.68 2 8 C2.66 8 3.32 8 4 8 C4.33 8.66 4.66 9.32 5 10 C5.33 9.01 5.66 8.02 6 7 C7.0725 7.20625 8.145 7.4125 9.25 7.625 C12.87619096 7.9876191 14.08291076 7.98362069 17 6 C16.01 7.65 15.02 9.3 14 11 C14.66 11.66 15.32 12.32 16 13 C16 13.99 16 14.98 16 16 C15.34 16 14.68 16 14 16 C14.33 16.66 14.66 17.32 15 18 C18.34373475 17.44271087 21.03312999 16.64826111 24 15 C22.79618552 17.49361571 21.54571278 19.68143083 20 22 C21.32 21.67 22.64 21.34 24 21 C24 21.66 24 22.32 24 23 C22.02 23.66 20.04 24.32 18 25 C18 25.66 18 26.32 18 27 C17.34 27 16.68 27 16 27 C15.67 27.66 15.34 28.32 15 29 C15 28.01 15 27.02 15 26 C14.34 26 13.68 26 13 26 C13.350625 26.5775 13.70125 27.155 14.0625 27.75 C15.16577711 30.39786506 14.80156509 31.33185326 14 34 C13.16013916 32.06532058 12.32831973 30.12714871 11.5 28.1875 C11.0359375 27.10855469 10.571875 26.02960937 10.09375 24.91796875 C9 22 9 22 9 19 C7.68 20.65 6.36 22.3 5 24 C3.875 17.25 3.875 17.25 5 15 C6.32 15.33 7.64 15.66 9 16 C8.67 14.68 8.34 13.36 8 12 C6.9790625 12.2784375 6.9790625 12.2784375 5.9375 12.5625 C2.42767809 13.08523943 -0.52188063 12.61378577 -4 12 C-4.020625 11.401875 -4.04125 10.80375 -4.0625 10.1875 C-4.90456616 7.56685398 -4.90456616 7.56685398 -8.5625 6.25 C-9.696875 5.8375 -10.83125 5.425 -12 5 C-12 4.67 -12 4.34 -12 4 C-6.375 3.75 -6.375 3.75 -3 6 C-2.690625 5.195625 -2.38125 4.39125 -2.0625 3.5625 C-1 1 -1 1 0 0 Z " fill="#344F75" transform="translate(87,16)"/>
<path d="M0 0 C0.33 0.66 0.66 1.32 1 2 C-0.32 2 -1.64 2 -3 2 C-3.33 2.99 -3.66 3.98 -4 5 C-5.65 5 -7.3 5 -9 5 C-8.20700294 7.17038477 -8.20700294 7.17038477 -6.15234375 7.6328125 C-5.42144531 7.79523438 -4.69054687 7.95765625 -3.9375 8.125 C-2.83728516 8.37636719 -2.83728516 8.37636719 -1.71484375 8.6328125 C-1.14894531 8.75398438 -0.58304688 8.87515625 0 9 C0 9.66 0 10.32 0 11 C-2.64 11 -5.28 11 -8 11 C-8 10.34 -8 9.68 -8 9 C-9.32 9 -10.64 9 -12 9 C-12.33 11.64 -12.66 14.28 -13 17 C-11.02 17.99 -9.04 18.98 -7 20 C-7 20.66 -7 21.32 -7 22 C-8.1446875 21.5359375 -8.1446875 21.5359375 -9.3125 21.0625 C-11.18789677 20.32106407 -13.08684652 19.63771783 -15 19 C-15.2284549 21.24362573 -15.2284549 21.24362573 -13 23.125 C-12.34 23.74375 -11.68 24.3625 -11 25 C-12.65 25.33 -14.3 25.66 -16 26 C-15.67 26.99 -15.34 27.98 -15 29 C-15.66 29.33 -16.32 29.66 -17 30 C-16.67 30.99 -16.34 31.98 -16 33 C-17.98 33.495 -17.98 33.495 -20 34 C-20.33 33.34 -20.66 32.68 -21 32 C-21.66 33.32 -22.32 34.64 -23 36 C-23 34.35 -23 32.7 -23 31 C-23.66 31 -24.32 31 -25 31 C-26.625 28.5 -26.625 28.5 -28 26 C-24.77208445 23.8480563 -23.71599191 23.79913557 -20 24 C-20.99 23.01 -21.98 22.02 -23 21 C-22.34 19.02 -21.68 17.04 -21 15 C-19.68 15.33 -18.36 15.66 -17 16 C-16.67 14.35 -16.34 12.7 -16 11 C-16.66 11 -17.32 11 -18 11 C-18.33 11.99 -18.66 12.98 -19 14 C-18.67 12.02 -18.34 10.04 -18 8 C-16.68 8 -15.36 8 -14 8 C-14 7.34 -14 6.68 -14 6 C-12.5 4.375 -12.5 4.375 -11 3 C-11.66 2.34 -12.32 1.68 -13 1 C-6.565 0.505 -6.565 0.505 0 0 Z " fill="#2F2964" transform="translate(116,59)"/>
<path d="M0 0 C2.47170427 2.40304582 4.78577168 4.70451267 6.8125 7.5 C12.35976952 13.83973659 18.83571955 15.87908445 27 17 C27 15.02 27 13.04 27 11 C27.66 11 28.32 11 29 11 C28.67 12.98 28.34 14.96 28 17 C29.89510699 17.08160748 31.79124504 17.13946459 33.6875 17.1875 C35.27111328 17.23970703 35.27111328 17.23970703 36.88671875 17.29296875 C40.36460416 16.9656897 42.10033435 15.8535516 45 14 C45.66 14.33 46.32 14.66 47 15 C42.36421874 20.71746355 36.90645459 22.39086533 29.703125 23.28515625 C22.72897339 23.56956314 15.65973576 22.23659598 10.25 17.6875 C9.5075 16.800625 8.765 15.91375 8 15 C7.48566406 14.55785156 6.97132812 14.11570312 6.44140625 13.66015625 C1.86618003 9.6993489 0.76336346 5.92264754 0 0 Z " fill="#463B90" transform="translate(37,69)"/>
<path d="M0 0 C6.00008597 0.39456348 10.54884393 1.49246821 16 4 C16.99 4 17.98 4 19 4 C20.75390625 5.64453125 20.75390625 5.64453125 22.5625 7.8125 C23.46162109 8.87404297 23.46162109 8.87404297 24.37890625 9.95703125 C29.35106379 16.22314786 29.14688593 22.21535391 29.0625 29.875 C29.05798828 30.65875 29.05347656 31.4425 29.04882812 32.25 C29.03714093 34.16670014 29.01920908 36.08336048 29 38 C28.67 38 28.34 38 28 38 C27.89510254 37.14619751 27.89510254 37.14619751 27.78808594 36.27514648 C27.45775017 33.66034236 27.10406592 31.0491924 26.75 28.4375 C26.64042969 27.54224609 26.53085938 26.64699219 26.41796875 25.72460938 C25.6100825 19.92058446 24.24721352 15.89094764 21 11 C20.67 12.65 20.34 14.3 20 16 C18.35 15.34 16.7 14.68 15 14 C15.33 12.68 15.66 11.36 16 10 C15.34 10 14.68 10 14 10 C13.67 10.99 13.34 11.98 13 13 C13 12.01 13 11.02 13 10 C12.34 10 11.68 10 11 10 C11 10.99 11 11.98 11 13 C10.34 13 9.68 13 9 13 C9 12.01 9 11.02 9 10 C8.34 10 7.68 10 7 10 C7 10.99 7 11.98 7 13 C6.34 13 5.68 13 5 13 C5 12.34 5 11.68 5 11 C4.34 11 3.68 11 3 11 C3 10.34 3 9.68 3 9 C9.435 8.505 9.435 8.505 16 8 C11.05 7.67 6.1 7.34 1 7 C0.67 4.69 0.34 2.38 0 0 Z " fill="#344D7A" transform="translate(65,33)"/>
<path d="M0 0 C0.66 0 1.32 0 2 0 C2.99 2.64 3.98 5.28 5 8 C9.455 7.505 9.455 7.505 14 7 C12.39598746 10.20802508 9.19662773 10.63001669 6 12 C5.67 12.66 5.34 13.32 5 14 C7.31 14 9.62 14 12 14 C10.68 14.33 9.36 14.66 8 15 C8 15.66 8 16.32 8 17 C10.64 17 13.28 17 16 17 C16 17.33 16 17.66 16 18 C15.37351562 18.02578125 14.74703125 18.0515625 14.1015625 18.078125 C13.28429687 18.13484375 12.46703125 18.1915625 11.625 18.25 C10.81289062 18.29640625 10.00078125 18.3428125 9.1640625 18.390625 C6.81161073 18.7922092 6.81161073 18.7922092 5.7109375 21.046875 C5.47632812 21.69140625 5.24171875 22.3359375 5 23 C4.01 23 3.02 23 2 23 C2 23.66 2 24.32 2 25 C0.68 25 -0.64 25 -2 25 C-2 25.99 -2 26.98 -2 28 C-1.34 28 -0.68 28 0 28 C-0.33 29.65 -0.66 31.3 -1 33 C-2.32 33 -3.64 33 -5 33 C-5.77802187 35.3015411 -5.77802187 35.3015411 -6 38 C-4.66846734 40.30504044 -4.66846734 40.30504044 -3 42 C-4.98 41.34 -6.96 40.68 -9 40 C-8.46489115 35.02574869 -6.86988629 31.59389793 -4.4375 27.25 C-1.30107727 21.40105863 -0.03862077 16.62283471 -1 10 C-1.66 9.67 -2.32 9.34 -3 9 C-2.67 7.68 -2.34 6.36 -2 5 C-2 5.66 -2 6.32 -2 7 C-1.34 7 -0.68 7 0 7 C1.04449911 3.86650268 0.93423645 3.01031744 0 0 Z " fill="#3C377A" transform="translate(100,42)"/>
<path d="M0 0 C2.97 0.495 2.97 0.495 6 1 C5.10551135 4.02750006 4.35598216 6.53010355 2.4375 9.0625 C0.71275617 11.38715473 0.42598734 13.16008441 0 16 C-0.165 16.61875 -0.33 17.2375 -0.5 17.875 C-1.20601114 20.87554735 -1.56407028 23.94849195 -2 27 C2.95 26.67 7.9 26.34 13 26 C12.67 25.01 12.34 24.02 12 23 C13.093125 22.896875 14.18625 22.79375 15.3125 22.6875 C18.91998166 22.37456435 18.91998166 22.37456435 20.5625 20.4375 C22 19 22 19 25.1875 18.8125 C26.5796875 18.9053125 26.5796875 18.9053125 28 19 C26.88250349 22.91123777 25.13647517 25.39532444 21.95703125 27.95043945 C18.00716837 30.06876038 13.68424483 29.63220397 9.3125 29.5 C8.36310547 29.50257812 7.41371094 29.50515625 6.43554688 29.5078125 C-0.45324858 29.41030655 -0.45324858 29.41030655 -2.78540039 27.66015625 C-4.73068642 25.00127284 -4.08086593 22.69357547 -3.75 19.5 C-3.64171875 18.3553125 -3.5334375 17.210625 -3.421875 16.03125 C-3 13 -3 13 -2 10 C-1.93334624 8.60560336 -1.91461801 7.20830125 -1.9375 5.8125 C-1.958125 4.554375 -1.97875 3.29625 -2 2 C-1.34 2 -0.68 2 0 2 C0 1.34 0 0.68 0 0 Z " fill="#5277B5" transform="translate(49,43)"/>
<path d="M0 0 C1.43836751 0.11458693 2.87570966 0.24209116 4.3125 0.375 C5.51326172 0.47941406 5.51326172 0.47941406 6.73828125 0.5859375 C9 1 9 1 12 3 C12 3.66 12 4.32 12 5 C12.66 5 13.32 5 14 5 C14.64690922 6.6037331 15.29248764 8.20800306 15.9375 9.8125 C16.29714844 10.70582031 16.65679687 11.59914063 17.02734375 12.51953125 C17.73613486 14.3270909 18.3860247 16.15807409 19 18 C18.34 18 17.68 18 17 18 C16.67 18.99 16.34 19.98 16 21 C15.34 20.34 14.68 19.68 14 19 C11.39719432 19.32041397 11.39719432 19.32041397 9 20 C9.66 18.68 10.32 17.36 11 16 C8.36 16.99 5.72 17.98 3 19 C3 18.34 3 17.68 3 17 C5.5 15.375 5.5 15.375 8 14 C7.67 11.36 7.34 8.72 7 6 C6.484375 6.33 5.96875 6.66 5.4375 7 C2.21973488 8.32010877 -0.5570528 8.13242105 -4 8 C-2.68 7.34 -1.36 6.68 0 6 C0 4.02 0 2.04 0 0 Z " fill="#35527F" transform="translate(18,62)"/>
<path d="M0 0 C5.62201387 4.45883859 6.74673728 10.40734367 7.546875 17.2265625 C7.68627423 18.75439762 7.81641274 20.28310464 7.9375 21.8125 C8.04227661 22.92467896 8.04227661 22.92467896 8.14916992 24.05932617 C8.36056185 27.60144958 8.40059992 29.49713723 6.1484375 32.32421875 C5.08496094 33.15373047 5.08496094 33.15373047 4 34 C3.236875 34.99 2.47375 35.98 1.6875 37 C-1.112196 40.40456859 -4.01818266 42.11768635 -8 44 C-9.32 44 -10.64 44 -12 44 C-12 43.34 -12 42.68 -12 42 C-11.41992188 41.72027344 -10.83984375 41.44054687 -10.2421875 41.15234375 C-3.63051493 37.75922466 0.83955755 34.02627912 4.375 27.4375 C5.11461831 24.5529886 5.13792868 21.9654667 5 19 C4.34 19.99 3.68 20.98 3 22 C2.01 21.67 1.02 21.34 0 21 C-0.1963696 18.62543835 -0.38231294 16.25079981 -0.5625 13.875 C-0.61857422 13.20984375 -0.67464844 12.5446875 -0.73242188 11.859375 C-1.03625857 7.7271959 -0.85227531 4.05304259 0 0 Z " fill="#3C3A82" transform="translate(85,43)"/>
<path d="M0 0 C0.90492187 0.02320312 1.80984375 0.04640625 2.7421875 0.0703125 C4.10730469 0.09738281 4.10730469 0.09738281 5.5 0.125 C6.19867188 0.14820312 6.89734375 0.17140625 7.6171875 0.1953125 C7.9471875 1.8453125 8.2771875 3.4953125 8.6171875 5.1953125 C9.2771875 5.1953125 9.9371875 5.1953125 10.6171875 5.1953125 C10.9471875 3.8753125 11.2771875 2.5553125 11.6171875 1.1953125 C12.9371875 1.5253125 14.2571875 1.8553125 15.6171875 2.1953125 C15.9471875 3.5153125 16.2771875 4.8353125 16.6171875 6.1953125 C17.2771875 4.5453125 17.9371875 2.8953125 18.6171875 1.1953125 C19.2771875 1.1953125 19.9371875 1.1953125 20.6171875 1.1953125 C19.9571875 4.1653125 19.2971875 7.1353125 18.6171875 10.1953125 C14.6171875 9.1953125 14.6171875 9.1953125 12.6171875 6.1953125 C12.2871875 7.5153125 11.9571875 8.8353125 11.6171875 10.1953125 C9.13794949 10.22216345 6.6589991 10.24207797 4.1796875 10.2578125 C3.47263672 10.26619141 2.76558594 10.27457031 2.03710938 10.28320312 C0.23025191 10.29184838 -1.57668853 10.24751261 -3.3828125 10.1953125 C-4.3828125 9.1953125 -4.3828125 9.1953125 -4.5703125 5.7578125 C-4.36137186 1.78794034 -4.13964775 0.33931539 0 0 Z " fill="#253554" transform="translate(45.3828125,97.8046875)"/>
<path d="M0 0 C-2.475 1.485 -2.475 1.485 -5 3 C-4.649375 3.5775 -4.29875 4.155 -3.9375 4.75 C-2.85082593 7.35801776 -3.06934867 8.39417629 -4 11 C-4.66 11 -5.32 11 -6 11 C-6.495 10.01 -6.495 10.01 -7 9 C-7.680625 9.7425 -7.680625 9.7425 -8.375 10.5 C-10 12 -10 12 -12 12 C-12 11.34 -12 10.68 -12 10 C-12.99 10.66 -13.98 11.32 -15 12 C-17.77813535 12.25017763 -20.40920579 12.37975379 -23.1875 12.375 C-24.33400024 12.37693359 -24.33400024 12.37693359 -25.50366211 12.37890625 C-31.27669849 12.27036503 -35.15774672 11.2968533 -40 8 C-37.45649438 6.72824719 -36.68370531 7.27254874 -34 8 C-24.59878427 8.95109575 -16.62072069 6.49400794 -9 1 C-5.55132746 -0.72433627 -3.66783231 -1.35845641 0 0 Z " fill="#3D3286" transform="translate(94,83)"/>
<path d="M0 0 C0.99 0.33 1.98 0.66 3 1 C2.67 1.33 2.34 1.66 2 2 C3.98 1.67 5.96 1.34 8 1 C7.67 2.65 7.34 4.3 7 6 C5.96939453 6.16435547 5.96939453 6.16435547 4.91796875 6.33203125 C4.01691406 6.49058594 3.11585937 6.64914063 2.1875 6.8125 C0.84751953 7.03873047 0.84751953 7.03873047 -0.51953125 7.26953125 C-3.31511594 8.09279792 -4.37718816 8.58658752 -6 11 C-6.57947281 13.96243726 -6.57947281 13.96243726 -6.6875 17.1875 C-6.75324219 18.27417969 -6.81898437 19.36085938 -6.88671875 20.48046875 C-6.92410156 21.31191406 -6.96148437 22.14335938 -7 23 C-7.99 23.33 -8.98 23.66 -10 24 C-10 24.66 -10 25.32 -10 26 C-10.99 26 -11.98 26 -13 26 C-12.96744792 24.046875 -12.93489583 22.09375 -12.90234375 20.140625 C-12.90597718 17.98555719 -12.90597718 17.98555719 -13.65625 15.9765625 C-14 14 -14 14 -13.06640625 12.0703125 C-9.40234637 7.33082726 -5.4199525 2.76198006 0 0 Z " fill="#365985" transform="translate(51,33)"/>
<path d="M0 0 C0.97130859 -0.01224609 1.94261719 -0.02449219 2.94335938 -0.03710938 C3.87083984 -0.03904297 4.79832031 -0.04097656 5.75390625 -0.04296875 C7.02923218 -0.04913208 7.02923218 -0.04913208 8.33032227 -0.05541992 C10.4375 0.1875 10.4375 0.1875 12.4375 2.1875 C12.58247985 4.76814129 12.62427545 7.23693884 12.5625 9.8125 C12.55347656 10.51890625 12.54445313 11.2253125 12.53515625 11.953125 C12.51157603 13.69806098 12.47570461 15.44282295 12.4375 17.1875 C12.1075 17.1875 11.7775 17.1875 11.4375 17.1875 C11.38851562 16.26066406 11.33953125 15.33382812 11.2890625 14.37890625 C11.21429688 13.18136719 11.13953125 11.98382813 11.0625 10.75 C10.99289063 9.55503906 10.92328125 8.36007813 10.8515625 7.12890625 C10.71492188 6.15824219 10.57828125 5.18757813 10.4375 4.1875 C7.79291621 2.86520811 5.75988699 3.09072806 2.8125 3.125 C1.30816406 3.13853516 1.30816406 3.13853516 -0.2265625 3.15234375 C-1.38285156 3.16974609 -1.38285156 3.16974609 -2.5625 3.1875 C-2.8925 4.1775 -3.2225 5.1675 -3.5625 6.1875 C-1.23035852 7.39378008 0.93392139 8.3529738 3.4375 9.1875 C3.1075 7.8675 2.7775 6.5475 2.4375 5.1875 C7.3125 6.0625 7.3125 6.0625 8.4375 7.1875 C8.57865161 9.85808851 8.47997107 12.51182238 8.4375 15.1875 C8.1075 15.1875 7.7775 15.1875 7.4375 15.1875 C6.7775 12.8775 6.1175 10.5675 5.4375 8.1875 C5.4375 8.8475 5.4375 9.5075 5.4375 10.1875 C2.125 10.375 2.125 10.375 -1.5625 10.1875 C-2.0575 9.671875 -2.5525 9.15625 -3.0625 8.625 C-3.5575 8.150625 -4.0525 7.67625 -4.5625 7.1875 C-8.20791845 7.42227199 -8.20791845 7.42227199 -11.5625 8.1875 C-12.2225 10.1675 -12.8825 12.1475 -13.5625 14.1875 C-13.8925 14.1875 -14.2225 14.1875 -14.5625 14.1875 C-14.2325 11.5475 -13.9025 8.9075 -13.5625 6.1875 C-14.5525 6.1875 -15.5425 6.1875 -16.5625 6.1875 C-16.8925 7.1775 -17.2225 8.1675 -17.5625 9.1875 C-17.8925 8.1975 -18.2225 7.2075 -18.5625 6.1875 C-12.51070523 -0.19141881 -8.37133469 0.00557717 0 0 Z " fill="#76AAD5" transform="translate(71.5625,46.8125)"/>
<path d="M0 0 C0.556875 0.309375 1.11375 0.61875 1.6875 0.9375 C4.15364096 2.07059179 6.33008521 2.54416089 9 3 C10.66666667 3.33333333 12.33333333 3.66666667 14 4 C13 7 13 7 12 8 C10.5198949 11.70026276 9.53238961 14.18421299 11 18 C9.68 18 8.36 18 7 18 C7 18.99 7 19.98 7 21 C5.35 20.67 3.7 20.34 2 20 C1.855625 21.11375 1.71125 22.2275 1.5625 23.375 C1 27 1 27 0 29 C-2.8125 29.8125 -2.8125 29.8125 -6 30 C-8.375 28.5625 -8.375 28.5625 -10 27 C-8.88625 26.773125 -7.7725 26.54625 -6.625 26.3125 C-2.83961627 25.39376342 -2.83961627 25.39376342 -1.5625 22.375 C-1.376875 21.59125 -1.19125 20.8075 -1 20 C-2.65 19.01 -4.3 18.02 -6 17 C-5.67 16.34 -5.34 15.68 -5 15 C-4.071875 15.515625 -3.14375 16.03125 -2.1875 16.5625 C0.92757947 18.40096246 0.92757947 18.40096246 4 17 C5.78178971 13.28793811 5.02623417 8.86752432 4 5 C2.09675987 2.05336759 2.09675987 2.05336759 0 0 Z " fill="#293E65" transform="translate(25,22)"/>
<path d="M0 0 C0.87205078 -0.02449219 1.74410156 -0.04898438 2.64257812 -0.07421875 C9.06609331 -0.10384296 9.06609331 -0.10384296 11.66015625 2.3984375 C11.95792969 3.05070312 12.25570312 3.70296875 12.5625 4.375 C11.91023438 4.46136719 11.25796875 4.54773437 10.5859375 4.63671875 C4.41579334 5.62867408 0.89901829 6.8216558 -3.4375 11.375 C-5.78538855 14.7291265 -5.97480704 18.36499433 -6.4375 22.375 C-6.7675 22.375 -7.0975 22.375 -7.4375 22.375 C-8.07123083 14.29493186 -8.07123083 14.29493186 -5.5 10.5625 C-4.819375 9.840625 -4.13875 9.11875 -3.4375 8.375 C-2.65916466 6.19285432 -2.65916466 6.19285432 -2.4375 4.375 C-4.9125 3.385 -4.9125 3.385 -7.4375 2.375 C-7.4375 3.035 -7.4375 3.695 -7.4375 4.375 C-8.0975 4.375 -8.7575 4.375 -9.4375 4.375 C-9.35371094 5.00148438 -9.26992188 5.62796875 -9.18359375 6.2734375 C-9.08175781 7.09070312 -8.97992188 7.90796875 -8.875 8.75 C-8.77058594 9.56210937 -8.66617188 10.37421875 -8.55859375 11.2109375 C-8.4375 13.375 -8.4375 13.375 -9.4375 15.375 C-9.66608114 17.4124763 -9.84774278 19.45540303 -10 21.5 C-10.08378906 22.59570312 -10.16757812 23.69140625 -10.25390625 24.8203125 C-10.31449219 25.66335937 -10.37507813 26.50640625 -10.4375 27.375 C-10.7675 27.375 -11.0975 27.375 -11.4375 27.375 C-11.49534708 23.25005849 -11.53104407 19.12522056 -11.5625 15 C-11.57925781 13.824375 -11.59601562 12.64875 -11.61328125 11.4375 C-11.61972656 10.31601562 -11.62617187 9.19453125 -11.6328125 8.0390625 C-11.64328613 7.00217285 -11.65375977 5.9652832 -11.66455078 4.89697266 C-11.09089079 -1.47497107 -4.91982655 0.00724036 0 0 Z " fill="#84C2E0" transform="translate(56.4375,40.625)"/>
<path d="M0 0 C1.32 0.33 2.64 0.66 4 1 C5.75 4.0625 5.75 4.0625 7 7 C7.33 4.69 7.66 2.38 8 0 C9.47906892 -0.02689216 10.95827483 -0.04634621 12.4375 -0.0625 C13.26121094 -0.07410156 14.08492187 -0.08570312 14.93359375 -0.09765625 C17 0 17 0 18 1 C18.1328125 2.8125 18.1328125 2.8125 18.125 5 C18.12886719 6.0828125 18.12886719 6.0828125 18.1328125 7.1875 C18 9 18 9 17 10 C14.98035801 10.07244053 12.95832876 10.08377188 10.9375 10.0625 C9.28041016 10.04896484 9.28041016 10.04896484 7.58984375 10.03515625 C6.73519531 10.02355469 5.88054687 10.01195313 5 10 C5 9.01 5 8.02 5 7 C2.03 7.66 -0.94 8.32 -4 9 C-2.68 6.03 -1.36 3.06 0 0 Z " fill="#3E5A82" transform="translate(82,99)"/>
<path d="M0 0 C2.40243465 2.15344283 3.60244944 3.96874765 4.6875 7 C5.06455078 8.0209375 5.06455078 8.0209375 5.44921875 9.0625 C6 11 6 11 6 14 C6.66 14 7.32 14 8 14 C9.47108485 18.97366784 8.63517 21.57958036 6.34179688 25.97070312 C5.96087891 26.66099609 5.57996094 27.35128906 5.1875 28.0625 C4.45018285 29.44834742 3.71446518 30.83504719 2.98046875 32.22265625 C2.45525635 33.1971875 2.45525635 33.1971875 1.91943359 34.19140625 C0.88612919 36.13971509 0.88612919 36.13971509 -0.07421875 38.87890625 C-1 41 -1 41 -4 42.875 C-4.99 43.24625 -5.98 43.6175 -7 44 C-7.66 43.67 -8.32 43.34 -9 43 C-7.54927753 40.99406276 -6.09008971 38.99539826 -4.625 37 C-4.2125 36.42765625 -3.8 35.8553125 -3.375 35.265625 C-2.29828281 33.80684688 -1.15333422 32.39899024 0 31 C0.66 31 1.32 31 2 31 C2.1982842 20.46890579 2.31290989 10.34614155 0 0 Z " fill="#8067C9" transform="translate(91,42)"/>
<path d="M0 0 C0.66 0 1.32 0 2 0 C1.08480054 3.29471806 0.13019324 4.88315991 -2.4375 7.1875 C-7.15709298 9.58869643 -11.7881148 10.2951899 -17 11 C-16.01 12.485 -16.01 12.485 -15 14 C-16.80271782 15.80271782 -19.44408749 15.21502284 -21.875 15.25 C-23.47988281 15.28867188 -23.47988281 15.28867188 -25.1171875 15.328125 C-28 15 -28 15 -29.8828125 13.796875 C-31.34454782 11.44583217 -31.07957669 9.72118888 -31 7 C-29.95658447 7.03927612 -29.95658447 7.03927612 -28.89208984 7.0793457 C-25.71995915 7.18370949 -22.54819022 7.2484506 -19.375 7.3125 C-17.73337891 7.3753418 -17.73337891 7.3753418 -16.05859375 7.43945312 C-9.1930703 7.65945865 -9.1930703 7.65945865 -3.2890625 4.60546875 C-1.01252859 2.23703163 -1.01252859 2.23703163 0 0 Z " fill="#404C8F" transform="translate(76,64)"/>
<path d="M0 0 C6.75 0.875 6.75 0.875 9 2 C9 2.99 9 3.98 9 5 C7.35 5 5.7 5 4 5 C4 5.66 4 6.32 4 7 C2.90042969 6.95359375 1.80085938 6.9071875 0.66796875 6.859375 C-8.42224642 6.59371171 -15.61609477 7.09321423 -24 11 C-25.66376648 11.6738719 -27.32968226 12.34253451 -29 13 C-29.33 12.34 -29.66 11.68 -30 11 C-29.34 10.67 -28.68 10.34 -28 10 C-28.33 9.01 -28.66 8.02 -29 7 C-24.05 5.515 -24.05 5.515 -19 4 C-19 4.66 -19 5.32 -19 6 C-17.68 6 -16.36 6 -15 6 C-14.67 5.01 -14.34 4.02 -14 3 C-13.10796875 3.01160156 -12.2159375 3.02320313 -11.296875 3.03515625 C-9.54117188 3.04869141 -9.54117188 3.04869141 -7.75 3.0625 C-6.00976562 3.07990234 -6.00976562 3.07990234 -4.234375 3.09765625 C-1.59022872 3.01782092 0.49826091 2.78643778 3 2 C2.01 1.34 1.02 0.68 0 0 Z " fill="#4775A2" transform="translate(73,21)"/>
<path d="M0 0 C0.66 0.33 1.32 0.66 2 1 C1.01 2.32 0.02 3.64 -1 5 C-0.34 5.66 0.32 6.32 1 7 C1 7.99 1 8.98 1 10 C0.34 10 -0.32 10 -1 10 C-0.67 10.66 -0.34 11.32 0 12 C3.34373475 11.44271087 6.03312999 10.64826111 9 9 C7.79618552 11.49361571 6.54571278 13.68143083 5 16 C6.32 15.67 7.64 15.34 9 15 C9 15.66 9 16.32 9 17 C7.02 17.66 5.04 18.32 3 19 C3 19.66 3 20.32 3 21 C2.34 21 1.68 21 1 21 C0.67 21.66 0.34 22.32 0 23 C-0.66 21.35 -1.32 19.7 -2 18 C-1.34 17.34 -0.68 16.68 0 16 C-0.99 15.67 -1.98 15.34 -3 15 C-4 9.25 -4 9.25 -4 7 C-6.475 6.01 -6.475 6.01 -9 5 C-9 3.68 -9 2.36 -9 1 C-7.88625 1.20625 -6.7725 1.4125 -5.625 1.625 C-3.830625 1.810625 -3.830625 1.810625 -2 2 C-1.34 1.34 -0.68 0.68 0 0 Z " fill="#263659" transform="translate(102,22)"/>
<path d="M0 0 C0.33 0 0.66 0 1 0 C1.45413419 6.35787869 0.75806163 10.75131057 -3 16 C-7.01107706 20.26710325 -11.44486231 23.97994993 -17 26 C-19.375 25.6875 -19.375 25.6875 -21 25 C-20.67 23.68 -20.34 22.36 -20 21 C-18.68 21.33 -17.36 21.66 -16 22 C-16 21.01 -16 20.02 -16 19 C-13.03 18.67 -10.06 18.34 -7 18 C-5.99740493 14.99221479 -5.69685358 12.46179353 -5.4375 9.3125 C-5.35371094 8.31863281 -5.26992187 7.32476562 -5.18359375 6.30078125 C-5.12300781 5.54152344 -5.06242187 4.78226562 -5 4 C-4.01 3.67 -3.02 3.34 -2 3 C-1.34 2.67 -0.68 2.34 0 2 C0 1.34 0 0.68 0 0 Z " fill="#252058" transform="translate(90,60)"/>
<path d="M0 0 C0.99 0.33 1.98 0.66 3 1 C2.34 2.32 1.68 3.64 1 5 C1.78375 4.938125 2.5675 4.87625 3.375 4.8125 C4.674375 4.9053125 4.674375 4.9053125 6 5 C6.99 6.485 6.99 6.485 8 8 C6.35 8.33 4.7 8.66 3 9 C3.33 9.99 3.66 10.98 4 12 C3.01 12.495 3.01 12.495 2 13 C2.33 13.99 2.66 14.98 3 16 C1.68 16.33 0.36 16.66 -1 17 C-1.33 16.34 -1.66 15.68 -2 15 C-2.66 16.32 -3.32 17.64 -4 19 C-4 17.35 -4 15.7 -4 14 C-4.66 14 -5.32 14 -6 14 C-7.625 11.5 -7.625 11.5 -9 9 C-5.77208445 6.8480563 -4.71599191 6.79913557 -1 7 C-1.66 5.68 -2.32 4.36 -3 3 C-2.01 2.67 -1.02 2.34 0 2 C0 1.34 0 0.68 0 0 Z " fill="#211E4B" transform="translate(97,76)"/>
<path d="M0 0 C1.8203125 1.63671875 1.8203125 1.63671875 3 3 C1.88238281 2.51660156 1.88238281 2.51660156 0.7421875 2.0234375 C-4.48601757 0.59359436 -9.47870589 0.63157283 -14.875 0.625 C-15.92558594 0.60050781 -16.97617187 0.57601563 -18.05859375 0.55078125 C-27.95890645 0.51360861 -33.76719053 3.49047148 -41 10 C-38.13223965 3.37989651 -32.05021419 0.19457219 -25.5625 -2.375 C-16.25208028 -5.42297785 -8.80977158 -4.3182323 0 0 Z " fill="#94CFE7" transform="translate(80,31)"/>
<path d="M0 0 C0.66 0 1.32 0 2 0 C2 0.99 2 1.98 2 3 C2.99 3.33 3.98 3.66 5 4 C5.99 4.66 6.98 5.32 8 6 C6 8 6 8 3 9 C3 9.66 3 10.32 3 11 C1.68 11 0.36 11 -1 11 C-1 11.99 -1 12.98 -1 14 C-0.34 14 0.32 14 1 14 C0.67 15.65 0.34 17.3 0 19 C-1.32 19 -2.64 19 -4 19 C-4.77802187 21.3015411 -4.77802187 21.3015411 -5 24 C-3.66846734 26.30504044 -3.66846734 26.30504044 -2 28 C-3.98 27.34 -5.96 26.68 -8 26 C-7.38910519 20.35567609 -5.15140525 16.07228416 -2.43945312 11.2109375 C-0.35107588 7.28496124 0.3718548 4.43521357 0 0 Z " fill="#5848A3" transform="translate(99,56)"/>
<path d="M0 0 C1.98 0 3.96 0 6 0 C7.4606285 2.64738916 8 3.89448334 8 7 C12.95 7 17.9 7 23 7 C23.495 7.99 23.495 7.99 24 9 C21.5211787 9.19389096 19.04219069 9.38040123 16.5625 9.5625 C15.85544922 9.61857422 15.14839844 9.67464844 14.41992188 9.73242188 C12.61572163 9.86190993 10.80768048 9.93521608 9 10 C8.67 9.67 8.34 9.34 8 9 C6.65984779 8.84417697 5.31241097 8.74955858 3.96484375 8.68359375 C3.15595703 8.64169922 2.34707031 8.59980469 1.51367188 8.55664062 C0.66353516 8.51732422 -0.18660156 8.47800781 -1.0625 8.4375 C-1.91650391 8.39431641 -2.77050781 8.35113281 -3.65039062 8.30664062 C-5.76672037 8.20023298 -7.88333813 8.09958269 -10 8 C-10 7.67 -10 7.34 -10 7 C-7.36 7 -4.72 7 -2 7 C-1.67 6.01 -1.34 5.02 -1 4 C-0.67 4.33 -0.34 4.66 0 5 C0 3.35 0 1.7 0 0 Z " fill="#5689B4" transform="translate(58,33)"/>
<path d="M0 0 C0.97021063 2.91063189 1.10460638 4.69038939 1.0625 7.7109375 C1.05476563 8.62617187 1.04703125 9.54140625 1.0390625 10.484375 C1.01312639 12.40364726 0.98708558 14.32291811 0.9609375 16.2421875 C0.95320313 17.16 0.94546875 18.0778125 0.9375 19.0234375 C0.92589844 19.85794434 0.91429687 20.69245117 0.90234375 21.55224609 C1.00505316 24.12665742 1.43129996 26.49066707 2 29 C-0.7972908 26.93243723 -1.02692273 25.85559629 -1.6875 22.3125 C-1.790625 21.219375 -1.89375 20.12625 -2 19 C-2.66 19 -3.32 19 -4 19 C-4 18.01 -4 17.02 -4 16 C-4.66 16 -5.32 16 -6 16 C-6 15.34 -6 14.68 -6 14 C-6.66 13.67 -7.32 13.34 -8 13 C-7.34 13 -6.68 13 -6 13 C-6 12.01 -6 11.02 -6 10 C-5.34 10 -4.68 10 -4 10 C-3.8453125 8.9171875 -3.8453125 8.9171875 -3.6875 7.8125 C-2.94013068 4.75508007 -1.71954811 2.61670365 0 0 Z " fill="#8BC5E6" transform="translate(35,46)"/>
<path d="M0 0 C0.99 0.495 0.99 0.495 2 1 C2.73075648 3.3140622 3.40138258 5.64828869 4 8 C5.32 8.33 6.64 8.66 8 9 C7.67 8.34 7.34 7.68 7 7 C6.95977609 4.6670134 6.95679753 2.33293334 7 0 C9 2 9 2 9 6 C9.78375 6.2475 10.5675 6.495 11.375 6.75 C14.3916501 8.18650005 14.71565565 9.04720831 16 12 C13.7089095 12.19441368 11.41709663 12.38033135 9.125 12.5625 C7.21074219 12.71912109 7.21074219 12.71912109 5.2578125 12.87890625 C2 13 2 13 0 12 C0 8.04 0 4.08 0 0 Z " fill="#3F5795" transform="translate(47,58)"/>
<path d="M0 0 C1.89492187 0.15275391 1.89492187 0.15275391 3.828125 0.30859375 C4.79234375 0.39238281 5.7565625 0.47617188 6.75 0.5625 C6.75 1.5525 6.75 2.5425 6.75 3.5625 C5.43 3.2325 4.11 2.9025 2.75 2.5625 C2.42 4.2125 2.09 5.8625 1.75 7.5625 C0.43 7.5625 -0.89 7.5625 -2.25 7.5625 C-1.92 5.5825 -1.59 3.6025 -1.25 1.5625 C-1.91 1.5625 -2.57 1.5625 -3.25 1.5625 C-3.25 3.5425 -3.25 5.5225 -3.25 7.5625 C-4.9 7.2325 -6.55 6.9025 -8.25 6.5625 C-8.25 5.5725 -8.25 4.5825 -8.25 3.5625 C-9.24 3.2325 -10.23 2.9025 -11.25 2.5625 C-11.25 1.9025 -11.25 1.2425 -11.25 0.5625 C-7.43483536 -0.73812431 -3.97438237 -0.33119853 0 0 Z " fill="#30296D" transform="translate(67.25,78.4375)"/>
<path d="M0 0 C0.13277344 0.57621094 0.26554687 1.15242188 0.40234375 1.74609375 C1.1673612 4.63115955 2.26894539 7.33072032 3.37890625 10.09765625 C4 12 4 12 4 15 C3.34 15 2.68 15 2 15 C1.67 15.66 1.34 16.32 1 17 C2.65 17.33 4.3 17.66 6 18 C4.625 20 4.625 20 3 22 C2.34 22 1.68 22 1 22 C0.74605469 21.27554688 0.49210937 20.55109375 0.23046875 19.8046875 C-1.58746784 14.69812405 -3.42102365 9.77110625 -6 5 C-4.10646634 3.10646634 -2.15473199 1.5801368 0 0 Z " fill="#50509D" transform="translate(96,34)"/>
<path d="M0 0 C8.3484286 0.71936573 15.14306249 1.98272865 22 7 C20.3125 7.6875 20.3125 7.6875 18 8 C17.175 7.484375 16.35 6.96875 15.5 6.4375 C14.675 5.963125 13.85 5.48875 13 5 C10.69712207 5.69140351 10.69712207 5.69140351 9 7 C9.33 6.01 9.66 5.02 10 4 C8.68 4.33 7.36 4.66 6 5 C6.33 5.99 6.66 6.98 7 8 C4.69 8.33 2.38 8.66 0 9 C-0.66 7.68 -1.32 6.36 -2 5 C-0.68 5 0.64 5 2 5 C2 4.01 2 3.02 2 2 C1.34 2 0.68 2 0 2 C0 1.34 0 0.68 0 0 Z " fill="#2E4477" transform="translate(30,82)"/>
<path d="M0 0 C3.37462715 0.54723683 5.08235 1.0549 8 3 C10.20606709 3.30709198 10.20606709 3.30709198 12.640625 3.265625 C13.54683594 3.26820312 14.45304687 3.27078125 15.38671875 3.2734375 C16.33160156 3.26570313 17.27648437 3.25796875 18.25 3.25 C19.64412109 3.26160156 19.64412109 3.26160156 21.06640625 3.2734375 C26.43584223 3.25824815 30.92364572 2.76690784 36 1 C32.09984337 5.4914707 26.42447273 6.56468567 20.6953125 7.29296875 C13.85313191 7.54863742 6.70829698 6.25691415 1.375 1.8125 C0.92125 1.214375 0.4675 0.61625 0 0 Z " fill="#8A85D4" transform="translate(46,85)"/>
<path d="M0 0 C0.99 0 1.98 0 3 0 C3 1.32 3 2.64 3 4 C3.66 4 4.32 4 5 4 C5.33 2.68 5.66 1.36 6 0 C7.32 0.33 8.64 0.66 10 1 C10.33 2.32 10.66 3.64 11 5 C11.66 3.35 12.32 1.7 13 0 C13.66 0 14.32 0 15 0 C14.34 2.97 13.68 5.94 13 9 C9 8 9 8 7 5 C6.67 6.32 6.34 7.64 6 9 C4.68 8.67 3.36 8.34 2 8 C1.34 5.36 0.68 2.72 0 0 Z " fill="#7AAECD" transform="translate(51,99)"/>
<path d="M0 0 C2.47170427 2.40304582 4.78577168 4.70451267 6.8125 7.5 C9.36368698 10.41564227 12.0357736 12.00726733 15.390625 13.88671875 C15.92171875 14.25410156 16.4528125 14.62148437 17 15 C17 15.66 17 16.32 17 17 C17.66 17.33 18.32 17.66 19 18 C13.83893891 18.45538774 10.47079073 16.83108481 6.35546875 13.78125 C1.84690072 9.83213931 0.75267055 5.83968529 0 0 Z " fill="#2E3B75" transform="translate(37,69)"/>
<path d="M0 0 C0.928125 0.061875 1.85625 0.12375 2.8125 0.1875 C1.72980046 3.9769484 0.04687097 6.75940173 -3.05859375 9.25 C-7.74107662 11.31201081 -13.18622332 10.52141313 -18.1875 10.1875 C-18.1875 9.8575 -18.1875 9.5275 -18.1875 9.1875 C-16.68896484 9.00574219 -16.68896484 9.00574219 -15.16015625 8.8203125 C-13.86980469 8.65273437 -12.57945313 8.48515625 -11.25 8.3125 C-9.31833984 8.06886719 -9.31833984 8.06886719 -7.34765625 7.8203125 C-5.78337891 7.50707031 -5.78337891 7.50707031 -4.1875 7.1875 C-3.8575 6.5275 -3.5275 5.8675 -3.1875 5.1875 C-4.46625 5.39375 -5.745 5.6 -7.0625 5.8125 C-9.2421875 6.1640625 -9.2421875 6.1640625 -11.1875 6.1875 C-11.8475 5.5275 -12.5075 4.8675 -13.1875 4.1875 C-12.094375 4.084375 -11.00125 3.98125 -9.875 3.875 C-6.26751834 3.56206435 -6.26751834 3.56206435 -4.625 1.625 C-3.1875 0.1875 -3.1875 0.1875 0 0 Z " fill="#827ACB" transform="translate(74.1875,61.8125)"/>
<path d="M0 0 C0.99 0 1.98 0 3 0 C2.938125 1.216875 2.87625 2.43375 2.8125 3.6875 C2.79177176 7.57750046 3.62724186 9.83632249 6 13 C3.5625 12.25 3.5625 12.25 1 11 C0.1875 8.875 0.1875 8.875 0 7 C0 9.31 0 11.62 0 14 C-1.65 13.67 -3.3 13.34 -5 13 C-6.231394 9.30581799 -5.64432764 6.7943739 -5 3 C-4.67 3 -4.34 3 -4 3 C-3.67 5.64 -3.34 8.28 -3 11 C-3 8.03 -3 5.06 -3 2 C-2.34 2 -1.68 2 -1 2 C-0.67 1.34 -0.34 0.68 0 0 Z " fill="#5D8DC1" transform="translate(55,53)"/>
<path d="M0 0 C5.61 0 11.22 0 17 0 C17.66 1.65 18.32 3.3 19 5 C17.35 4.34 15.7 3.68 14 3 C13.67 4.98 13.34 6.96 13 9 C9.8816501 7.14847975 6.77968482 5.2698557 3.6875 3.375 C2.99011719 2.94960938 2.29273437 2.52421875 1.57421875 2.0859375 C1.05472656 1.72757813 0.53523438 1.36921875 0 1 C0 0.67 0 0.34 0 0 Z " fill="#4770A0" transform="translate(78,28)"/>
<path d="M0 0 C0.68359375 1.72265625 0.68359375 1.72265625 1 4 C-2.2340001 10.12815612 -7.55454655 15.35537065 -14 18 C-15.32 18 -16.64 18 -18 18 C-18 17.34 -18 16.68 -18 16 C-17.41992188 15.72027344 -16.83984375 15.44054687 -16.2421875 15.15234375 C-10.05919663 11.97922468 -5.16743774 8.33487549 -2 2 C-1.34 2 -0.68 2 0 2 C0 1.34 0 0.68 0 0 Z " fill="#332A6E" transform="translate(91,69)"/>
<path d="M0 0 C2.40243465 2.15344283 3.60244944 3.96874765 4.6875 7 C4.93886719 7.680625 5.19023438 8.36125 5.44921875 9.0625 C6 11 6 11 6 14 C6.66 14 7.32 14 8 14 C8.85637238 16.92593895 9.38673104 19.08174288 8.17578125 21.95703125 C7.17852152 23.67511732 6.09427085 25.34201387 5 27 C4.67 27 4.34 27 4 27 C3.96261719 25.80503906 3.92523438 24.61007813 3.88671875 23.37890625 C3.42497142 11.41259115 3.42497142 11.41259115 0 0 Z " fill="#BAB1EA" transform="translate(91,42)"/>
<path d="M0 0 C1.41778293 2.83556587 0.86257622 4.9908706 0.5625 8.125 C0.46066406 9.22070312 0.35882813 10.31640625 0.25390625 11.4453125 C0.17011719 12.28835937 0.08632813 13.13140625 0 14 C-0.99 14.33 -1.98 14.66 -3 15 C-3 15.66 -3 16.32 -3 17 C-3.99 17 -4.98 17 -6 17 C-6.4989111 11.01306681 -5.20009713 7.08044617 -2 2 C-1.34 1.34 -0.68 0.68 0 0 Z " fill="#283F6C" transform="translate(44,42)"/>
<path d="M0 0 C6.75 0.875 6.75 0.875 9 2 C9 2.99 9 3.98 9 5 C7.35 5 5.7 5 4 5 C4 5.66 4 6.32 4 7 C-2.27 6.34 -8.54 5.68 -15 5 C-14.67 4.34 -14.34 3.68 -14 3 C-13.10796875 3.01160156 -12.2159375 3.02320313 -11.296875 3.03515625 C-9.54117188 3.04869141 -9.54117188 3.04869141 -7.75 3.0625 C-6.00976562 3.07990234 -6.00976562 3.07990234 -4.234375 3.09765625 C-1.59022872 3.01782092 0.49826091 2.78643778 3 2 C2.01 1.34 1.02 0.68 0 0 Z " fill="#3C638F" transform="translate(73,21)"/>
<path d="M0 0 C0.99 1.485 0.99 1.485 2 3 C3.10888148 4.30553041 4.23546743 5.59613594 5.375 6.875 C8.02798022 9.85522008 10.49895741 12.87369677 13 16 C8.71 15.67 4.42 15.34 0 15 C0.66 13.68 1.32 12.36 2 11 C2.66 11 3.32 11 4 11 C3.34 9.9275 2.68 8.855 2 7.75 C0.11704193 4.69019314 0 3.8664136 0 0 Z " fill="#517AB4" transform="translate(33,69)"/>
<path d="M0 0 C0.33 0 0.66 0 1 0 C1.33 3.3 1.66 6.6 2 10 C1.34 10 0.68 10 0 10 C0 10.66 0 11.32 0 12 C-2.31 11.67 -4.62 11.34 -7 11 C-6.34 9.02 -5.68 7.04 -5 5 C-4.01 5 -3.02 5 -2 5 C-1.34 3.35 -0.68 1.7 0 0 Z " fill="#4C3D8F" transform="translate(81,65)"/>
<path d="M0 0 C0 0.99 0 1.98 0 3 C0.99 3.33 1.98 3.66 3 4 C3 5.32 3 6.64 3 8 C2.34 8 1.68 8 1 8 C0.67 7.34 0.34 6.68 0 6 C-0.45375 6.495 -0.9075 6.99 -1.375 7.5 C-3 9 -3 9 -5 9 C-5 8.34 -5 7.68 -5 7 C-6.98 7.99 -6.98 7.99 -9 9 C-9 6 -9 6 -7.5390625 4.39453125 C-6.59160156 3.61142578 -6.59160156 3.61142578 -5.625 2.8125 C-4.68527344 2.01779297 -4.68527344 2.01779297 -3.7265625 1.20703125 C-2 0 -2 0 0 0 Z " fill="#3A317A" transform="translate(87,86)"/>
<path d="M0 0 C2.72426311 2.35277269 3.8141763 4.62496331 5 8 C4.34 8 3.68 8 3 8 C2.67 8.99 2.34 9.98 2 11 C1.34 10.34 0.68 9.68 0 9 C-2.60280568 9.32041397 -2.60280568 9.32041397 -5 10 C-4.34 8.68 -3.68 7.36 -3 6 C-5.64 6.99 -8.28 7.98 -11 9 C-11 8.34 -11 7.68 -11 7 C-7.14243493 4.84694043 -4.44870215 3.60746746 0 4 C0 2.68 0 1.36 0 0 Z " fill="#283C68" transform="translate(32,72)"/>
<path d="M0 0 C2.01822917 0.06510417 4.03645833 0.13020833 6.0546875 0.1953125 C6.0546875 0.8553125 6.0546875 1.5153125 6.0546875 2.1953125 C7.3746875 2.8553125 8.6946875 3.5153125 10.0546875 4.1953125 C10.0546875 6.1753125 10.0546875 8.1553125 10.0546875 10.1953125 C9.7246875 10.1953125 9.3946875 10.1953125 9.0546875 10.1953125 C8.8071875 9.2259375 8.5596875 8.2565625 8.3046875 7.2578125 C7.8921875 6.2471875 7.4796875 5.2365625 7.0546875 4.1953125 C5.02225202 3.22654193 5.02225202 3.22654193 3.0546875 3.1953125 C3.3846875 4.5153125 3.7146875 5.8353125 4.0546875 7.1953125 C0.25879884 6.65304269 -1.41743243 4.99403687 -3.9453125 2.1953125 C-1.9453125 0.1953125 -1.9453125 0.1953125 0 0 Z " fill="#5381BB" transform="translate(70.9453125,48.8046875)"/>
<path d="M0 0 C3.83736322 0.95934081 4.59660228 1.23609263 7 4 C7.33 2.68 7.66 1.36 8 0 C8.66 0 9.32 0 10 0 C10 2.97 10 5.94 10 9 C8.68 8.67 7.36 8.34 6 8 C4.75 5.4375 4.75 5.4375 4 3 C3.34 3 2.68 3 2 3 C2 4.98 2 6.96 2 9 C1.34 9 0.68 9 0 9 C0 6.03 0 3.06 0 0 Z " fill="#73A8CB" transform="translate(29,99)"/>
<path d="M0 0 C2.97 0.33 5.94 0.66 9 1 C8.67 2.98 8.34 4.96 8 7 C5.69 7 3.38 7 1 7 C0.67 4.69 0.34 2.38 0 0 Z " fill="#4574A2" transform="translate(65,33)"/>
<path d="M0 0 C1.32 0.33 2.64 0.66 4 1 C7 6.03571429 7 6.03571429 7 9 C6.34 9 5.68 9 5 9 C5 8.34 5 7.68 5 7 C2.03 7.66 -0.94 8.32 -4 9 C-2.68 6.03 -1.36 3.06 0 0 Z " fill="#6898BD" transform="translate(82,99)"/>
<path d="M0 0 C1.43655854 -0.08131463 2.8744483 -0.13933559 4.3125 -0.1875 C5.51326172 -0.23970703 5.51326172 -0.23970703 6.73828125 -0.29296875 C9 0 9 0 10.79296875 1.32421875 C12 3 12 3 12 6 C12.66 6.33 13.32 6.66 14 7 C8.57107935 6.56568635 5.29203296 5.37231161 1 2 C0.67 1.34 0.34 0.68 0 0 Z " fill="#1D1D4C" transform="translate(47,79)"/>
<path d="M0 0 C0.639375 0.495 1.27875 0.99 1.9375 1.5 C3.70974339 3.09802862 3.70974339 3.09802862 5 3 C6.0176403 8.01608525 6.11856434 12.78608306 6.0625 17.875 C6.05798828 18.65875 6.05347656 19.4425 6.04882812 20.25 C6.03714093 22.16670014 6.01920908 24.08336048 6 26 C5.67 26 5.34 26 5 26 C4.91959473 25.42556152 4.83918945 24.85112305 4.75634766 24.25927734 C4.38502141 21.6303299 4.00508384 19.002695 3.625 16.375 C3.49867187 15.47136719 3.37234375 14.56773438 3.2421875 13.63671875 C2.54989229 8.89449656 1.72038021 4.50290819 0 0 Z " fill="#514A9B" transform="translate(88,45)"/>
<path d="M0 0 C5.28 0 10.56 0 16 0 C16 1.98 16 3.96 16 6 C14.68 5.34 13.36 4.68 12 4 C12.33 3.01 12.66 2.02 13 1 C12.34 1 11.68 1 11 1 C10.67 1.99 10.34 2.98 10 4 C10 3.01 10 2.02 10 1 C9.34 1 8.68 1 8 1 C8 1.99 8 2.98 8 4 C7.34 4 6.68 4 6 4 C6 3.01 6 2.02 6 1 C5.34 1 4.68 1 4 1 C4 1.99 4 2.98 4 4 C3.34 4 2.68 4 2 4 C2 3.34 2 2.68 2 2 C1.34 2 0.68 2 0 2 C0 1.34 0 0.68 0 0 Z " fill="#3C5C87" transform="translate(68,42)"/>
<path d="M0 0 C0 0.99 0 1.98 0 3 C-0.99 3.66 -1.98 4.32 -3 5 C-2.625 3.0625 -2.625 3.0625 -2 1 C-1.34 0.67 -0.68 0.34 0 0 Z M-5 5 C-4.34 5.33 -3.68 5.66 -3 6 C-2.34 6 -1.68 6 -1 6 C-0.34 6 0.32 6 1 6 C1 6.66 1 7.32 1 8 C-0.98 8.66 -2.96 9.32 -5 10 C-5 10.66 -5 11.32 -5 12 C-5.66 12 -6.32 12 -7 12 C-7.33 12.66 -7.66 13.32 -8 14 C-8.66 12.35 -9.32 10.7 -10 9 C-8.35 7.68 -6.7 6.36 -5 5 Z " fill="#1F254B" transform="translate(110,31)"/>
<path d="M0 0 C2.05078125 0.03255208 4.1015625 0.06510417 6.15234375 0.09765625 C6.15234375 0.75765625 6.15234375 1.41765625 6.15234375 2.09765625 C3.84234375 2.09765625 1.53234375 2.09765625 -0.84765625 2.09765625 C-0.84765625 2.75765625 -0.84765625 3.41765625 -0.84765625 4.09765625 C1.46234375 4.09765625 3.77234375 4.09765625 6.15234375 4.09765625 C6.15234375 4.42765625 6.15234375 4.75765625 6.15234375 5.09765625 C3.84234375 5.09765625 1.53234375 5.09765625 -0.84765625 5.09765625 C-0.51765625 5.75765625 -0.18765625 6.41765625 0.15234375 7.09765625 C3.18168866 7.75538053 3.18168866 7.75538053 6.15234375 8.09765625 C6.15234375 8.42765625 6.15234375 8.75765625 6.15234375 9.09765625 C-0 9.1953125 -0 9.1953125 -1.84765625 9.09765625 C-2.84765625 8.09765625 -2.84765625 8.09765625 -2.97265625 4.59765625 C-2.81376564 0.14871911 -2.81376564 0.14871911 0 0 Z " fill="#7DB1D2" transform="translate(43.84765625,98.90234375)"/>
<path d="M0 0 C0.928125 0.20625 1.85625 0.4125 2.8125 0.625 C2.4825 1.945 2.1525 3.265 1.8125 4.625 C1.1525 4.625 0.4925 4.625 -0.1875 4.625 C-0.1875 6.935 -0.1875 9.245 -0.1875 11.625 C-0.5175 11.625 -0.8475 11.625 -1.1875 11.625 C-1.1875 9.975 -1.1875 8.325 -1.1875 6.625 C-1.8475 6.625 -2.5075 6.625 -3.1875 6.625 C-4.8125 4.125 -4.8125 4.125 -6.1875 1.625 C-3.1875 -0.375 -3.1875 -0.375 0 0 Z " fill="#302B6B" transform="translate(94.1875,83.375)"/>
<path d="M0 0 C0.9075 0.78375 1.815 1.5675 2.75 2.375 C5.05190236 4.30052496 7.21577207 5.82205741 10 7 C10 7.66 10 8.32 10 9 C9.236875 8.690625 8.47375 8.38125 7.6875 8.0625 C5.81210323 7.32106407 3.91315348 6.63771783 2 6 C2 6.99 2 7.98 2 9 C1.01 9 0.02 9 -1 9 C-0.67 7.68 -0.34 6.36 0 5 C-0.66 4.67 -1.32 4.34 -2 4 C-2 4.66 -2 5.32 -2 6 C-3.98 6.99 -3.98 6.99 -6 8 C-5.34 6.02 -4.68 4.04 -4 2 C-2.68 2.33 -1.36 2.66 0 3 C0 2.01 0 1.02 0 0 Z " fill="#352D70" transform="translate(99,72)"/>
<path d="M0 0 C0.33 0.99 0.66 1.98 1 3 C0.01 4.485 0.01 4.485 -1 6 C0.65 6 2.3 6 4 6 C4 6.33 4 6.66 4 7 C-1.61 7 -7.22 7 -13 7 C-13.33 6.34 -13.66 5.68 -14 5 C-13.24074219 4.86722656 -12.48148438 4.73445313 -11.69921875 4.59765625 C-10.70535156 4.42105469 -9.71148437 4.24445313 -8.6875 4.0625 C-7.20830078 3.80146484 -7.20830078 3.80146484 -5.69921875 3.53515625 C-2.91810787 3.04253153 -2.91810787 3.04253153 0 2 C0 1.34 0 0.68 0 0 Z " fill="#604BAC" transform="translate(75,70)"/>
<path d="M0 0 C0.66 0 1.32 0 2 0 C0.64231796 4.88765533 -1.67034421 6.52591098 -6 9 C-8.80157448 9.93385816 -10.65447803 10.16354595 -13.5625 10.1875 C-14.74005859 10.20876953 -14.74005859 10.20876953 -15.94140625 10.23046875 C-18 10 -18 10 -20 8 C-19.13117187 7.98582031 -18.26234375 7.97164063 -17.3671875 7.95703125 C-9.78797439 7.87827855 -9.78797439 7.87827855 -3.25 4.5625 C-1.00828183 2.22830517 -1.00828183 2.22830517 0 0 Z " fill="#433A84" transform="translate(76,64)"/>
<path d="M0 0 C3.6875 0.3125 3.6875 0.3125 7 1 C7.33 1.99 7.66 2.98 8 4 C10.31 4 12.62 4 15 4 C14.67 2.68 14.34 1.36 14 0 C15.5 1.125 15.5 1.125 17 3 C17.1875 6.1875 17.1875 6.1875 17 9 C16.67 7.68 16.34 6.36 16 5 C13.03 5 10.06 5 7 5 C7 4.34 7 3.68 7 3 C3.7 3 0.4 3 -3 3 C-2.01 2.01 -1.02 1.02 0 0 Z " fill="#32477A" transform="translate(62,53)"/>
<path d="M0 0 C3.21812026 -0.56317104 5.28102157 -0.4751869 8.0390625 1.34765625 C12.1332895 4.836183 15.28620405 8.36393192 18 13 C17.67 13.66 17.34 14.32 17 15 C16.61328125 14.45730469 16.2265625 13.91460937 15.828125 13.35546875 C15.30734375 12.64003906 14.7865625 11.92460938 14.25 11.1875 C13.73953125 10.47980469 13.2290625 9.77210937 12.703125 9.04296875 C10.94609007 6.93533281 9.32627585 5.45163277 7 4 C6.01 4 5.02 4 4 4 C4 3.34 4 2.68 4 2 C2.68 1.34 1.36 0.68 0 0 Z " fill="#4F76AA" transform="translate(75,33)"/>
<path d="M0 0 C2.31 0 4.62 0 7 0 C7 0.66 7 1.32 7 2 C5.75823305 2.70226141 4.50614401 3.38629109 3.25 4.0625 C2.20585938 4.63677734 2.20585938 4.63677734 1.140625 5.22265625 C-1.36140628 6.1312406 -2.5332355 5.88336837 -5 5 C-4.67 3.68 -4.34 2.36 -4 1 C-2.02 1.495 -2.02 1.495 0 2 C0 1.34 0 0.68 0 0 Z " fill="#201B4C" transform="translate(74,80)"/>
<path d="M0 0 C-2.475 1.485 -2.475 1.485 -5 3 C-4.34 4.32 -3.68 5.64 -3 7 C-4.32 6.67 -5.64 6.34 -7 6 C-7 5.01 -7 4.02 -7 3 C-8.36125 4.0209375 -8.36125 4.0209375 -9.75 5.0625 C-13 7 -13 7 -15.203125 6.62109375 C-15.79609375 6.41613281 -16.3890625 6.21117188 -17 6 C-4.95064841 -1.83357349 -4.95064841 -1.83357349 0 0 Z " fill="#493A94" transform="translate(94,83)"/>
<path d="M0 0 C2.1519437 3.22791555 2.20086443 4.28400809 2 8 C0.35 7.67 -1.3 7.34 -3 7 C-3 6.01 -3 5.02 -3 4 C-3.99 3.67 -4.98 3.34 -6 3 C-6 2.34 -6 1.68 -6 1 C-3.92446352 0.4465236 -2.15634036 0 0 0 Z " fill="#292864" transform="translate(62,78)"/>
<path d="M0 0 C0.66 0.33 1.32 0.66 2 1 C1.125 6.75 1.125 6.75 0 9 C-2.8125 9.8125 -2.8125 9.8125 -6 10 C-8.375 8.5625 -8.375 8.5625 -10 7 C-8.906875 6.773125 -7.81375 6.54625 -6.6875 6.3125 C-2.87511789 5.34252805 -2.87511789 5.34252805 -1.0625 2.375 C-0.711875 1.59125 -0.36125 0.8075 0 0 Z " fill="#1E2B50" transform="translate(25,42)"/>
<path d="M0 0 C1.84765625 0.33984375 1.84765625 0.33984375 4.0625 0.9375 C5.16271484 1.22947266 5.16271484 1.22947266 6.28515625 1.52734375 C7.13400391 1.76130859 7.13400391 1.76130859 8 2 C8 2.66 8 3.32 8 4 C1.18491136 4.82810601 -4.51870203 5.50413785 -11 3 C-11 2.67 -11 2.34 -11 2 C-10.28972656 1.93941406 -9.57945313 1.87882812 -8.84765625 1.81640625 C-7.46900391 1.69072266 -7.46900391 1.69072266 -6.0625 1.5625 C-5.14597656 1.48128906 -4.22945312 1.40007813 -3.28515625 1.31640625 C-1.03840268 1.23955024 -1.03840268 1.23955024 0 0 Z " fill="#2D456C" transform="translate(64,18)"/>
<path d="M0 0 C2.97 0.495 2.97 0.495 6 1 C6 1.66 6 2.32 6 3 C6.66 3 7.32 3 8 3 C8 3.99 8 4.98 8 6 C8.66 6 9.32 6 10 6 C9.67 7.32 9.34 8.64 9 10 C9 9.34 9 8.68 9 8 C8.34 8 7.68 8 7 8 C7 7.34 7 6.68 7 6 C5.8553125 6.12375 5.8553125 6.12375 4.6875 6.25 C2 6 2 6 0.1875 4 C-0.204375 3.34 -0.59625 2.68 -1 2 C-0.67 1.34 -0.34 0.68 0 0 Z " fill="#4770A1" transform="translate(23,59)"/>
<path d="M0 0 C0.598125 0.33 1.19625 0.66 1.8125 1 C4.05386471 2.20787988 4.05386471 2.20787988 7 2 C6.319375 2.474375 5.63875 2.94875 4.9375 3.4375 C2.66211786 6.44687638 2.82395666 7.14283302 3.25 10.75 C3.47906484 12.17020201 3.72251758 13.58845901 4 15 C0.57068046 11.2440786 -0.56429083 6.76533255 -2 2 C-1.34 2 -0.68 2 0 2 C0 1.34 0 0.68 0 0 Z " fill="#353871" transform="translate(98,35)"/>
<path d="M0 0 C3.7302555 0.71735683 6.83185361 1.8879024 10 4 C10.875 7.6875 10.875 7.6875 11 11 C6.86378916 7.6189962 3.18683431 4.33409466 0 0 Z " fill="#6797C6" transform="translate(80,31)"/>
<path d="M0 0 C2.01822917 0.06510417 4.03645833 0.13020833 6.0546875 0.1953125 C6.3846875 1.5153125 6.7146875 2.8353125 7.0546875 4.1953125 C6.0646875 4.8553125 5.0746875 5.5153125 4.0546875 6.1953125 C4.0546875 5.2053125 4.0546875 4.2153125 4.0546875 3.1953125 C1.5796875 2.2053125 1.5796875 2.2053125 -0.9453125 1.1953125 C-0.9453125 1.8553125 -0.9453125 2.5153125 -0.9453125 3.1953125 C-1.6053125 3.1953125 -2.2653125 3.1953125 -2.9453125 3.1953125 C-2.84992187 3.82179687 -2.75453125 4.44828125 -2.65625 5.09375 C-2.54539063 5.91101562 -2.43453125 6.72828125 -2.3203125 7.5703125 C-2.20429687 8.38242187 -2.08828125 9.19453125 -1.96875 10.03125 C-1.96101563 10.74539062 -1.95328125 11.45953125 -1.9453125 12.1953125 C-2.6053125 12.8553125 -3.2653125 13.5153125 -3.9453125 14.1953125 C-3.99920337 12.23727743 -4.03805467 10.27882341 -4.0703125 8.3203125 C-4.09351563 7.22976562 -4.11671875 6.13921875 -4.140625 5.015625 C-3.91574599 1.76837207 -3.42743504 0.34411998 0 0 Z " fill="#649FC9" transform="translate(49.9453125,41.8046875)"/>
<path d="M0 0 C3.63 0 7.26 0 11 0 C9.68 0.33 8.36 0.66 7 1 C7 1.66 7 2.32 7 3 C9.64 3 12.28 3 15 3 C15 3.33 15 3.66 15 4 C13.06257659 4.02703381 11.12504521 4.04641125 9.1875 4.0625 C8.10855469 4.07410156 7.02960938 4.08570313 5.91796875 4.09765625 C3 4 3 4 0 3 C0 2.01 0 1.02 0 0 Z " fill="#493E87" transform="translate(101,56)"/>
<path d="M0 0 C0.99 0.33 1.98 0.66 3 1 C2.39671875 1.37511719 1.7934375 1.75023437 1.171875 2.13671875 C-6.35870958 6.83400466 -6.35870958 6.83400466 -10.75 14.3125 C-10.8325 14.869375 -10.915 15.42625 -11 16 C-11.66 16 -12.32 16 -13 16 C-13.33 16.66 -13.66 17.32 -14 18 C-13.16016317 10.86138693 -8.87189202 6.59648659 -3.5859375 2.19921875 C-2 1 -2 1 0 0 Z " fill="#375884" transform="translate(51,33)"/>
<path d="M0 0 C0.66 0.33 1.32 0.66 2 1 C0.57114738 4.00811079 -1.07890512 6.73811856 -2.9375 9.5 C-3.44152344 10.2528125 -3.94554687 11.005625 -4.46484375 11.78125 C-5.92743285 13.89511923 -7.44300173 15.95498735 -9 18 C-8.58742287 12.49897163 -6.45277325 8.23798336 -3 4 C-2.34 4 -1.68 4 -1 4 C-0.67 2.68 -0.34 1.36 0 0 Z " fill="#5285BA" transform="translate(42,32)"/>
<path d="M0 0 C0.99 0 1.98 0 3 0 C3 0.99 3 1.98 3 3 C4.32 2.67 5.64 2.34 7 2 C6.67 2.99 6.34 3.98 6 5 C5.34 4.67 4.68 4.34 4 4 C3.67 4.66 3.34 5.32 3 6 C-0.0625 6.625 -0.0625 6.625 -3 7 C-2.25 2.25 -2.25 2.25 0 0 Z " fill="#161F40" transform="translate(26,78)"/>
<path d="M0 0 C0.33 0 0.66 0 1 0 C1 7.92 1 15.84 1 24 C0.67 24 0.34 24 0 24 C0 22.02 0 20.04 0 18 C-1.32 18.33 -2.64 18.66 -4 19 C-4 18.34 -4 17.68 -4 17 C-3.34 17 -2.68 17 -2 17 C-2 16.34 -2 15.68 -2 15 C-1.34 15 -0.68 15 0 15 C0 10.05 0 5.1 0 0 Z " fill="#426797" transform="translate(44,44)"/>
<path d="M0 0 C2.65269897 2.47585238 4.68010103 4.59026101 6 8 C6 8.99 6 9.98 6 11 C5.01 10.67 4.02 10.34 3 10 C3.33 9.34 3.66 8.68 4 8 C2.35 7.67 0.7 7.34 -1 7 C-0.67 4.69 -0.34 2.38 0 0 Z " fill="#252E5C" transform="translate(85,43)"/>
<path d="M0 0 C0.99 0 1.98 0 3 0 C3 1.32 3 2.64 3 4 C3.66 4 4.32 4 5 4 C5.33 3.34 5.66 2.68 6 2 C7.04449911 5.13349732 6.93423645 5.98968256 6 9 C4.68 8.67 3.36 8.34 2 8 C1.34 5.36 0.68 2.72 0 0 Z " fill="#6999BD" transform="translate(51,99)"/>
<path d="M0 0 C2 2 2 2 2 6 C2.78375 6.2475 3.5675 6.495 4.375 6.75 C7.32317108 8.15389099 7.9024777 9.00675737 9 12 C7.68 12 6.36 12 5 12 C4.67 10.68 4.34 9.36 4 8 C3.01 8.33 2.02 8.66 1 9 C-0.4783226 6.04335481 -0.06032783 3.25770263 0 0 Z " fill="#475EA3" transform="translate(54,58)"/>
<path d="M0 0 C2.16874252 0.50603992 3.99967627 0.99983813 6 2 C6 3.32 6 4.64 6 6 C5.34 5.67 4.68 5.34 4 5 C1.66924071 5.95865509 1.66924071 5.95865509 0 9 C-1.125 2.25 -1.125 2.25 0 0 Z " fill="#354C81" transform="translate(92,31)"/>
<path d="M0 0 C1.4370809 -0.05422947 2.87475462 -0.09289723 4.3125 -0.125 C5.11300781 -0.14820312 5.91351563 -0.17140625 6.73828125 -0.1953125 C9 0 9 0 12 2 C10.68 3.32 9.36 4.64 8 6 C6.66402348 5.19185349 5.331275 4.37836819 4 3.5625 C3.2575 3.11003906 2.515 2.65757813 1.75 2.19140625 C1.1725 1.79824219 0.595 1.40507812 0 1 C0 0.67 0 0.34 0 0 Z " fill="#3F6691" transform="translate(78,28)"/>
<path d="M0 0 C1 3 1 3 -0.4375 6.1875 C-1.2109375 7.5796875 -1.2109375 7.5796875 -2 9 C-6.95 7.02 -6.95 7.02 -12 5 C-12 4.67 -12 4.34 -12 4 C-6.375 3.75 -6.375 3.75 -3 6 C-2.690625 5.195625 -2.38125 4.39125 -2.0625 3.5625 C-1 1 -1 1 0 0 Z " fill="#2E4464" transform="translate(87,16)"/>
<path d="M0 0 C2.97 0 5.94 0 9 0 C9 0.66 9 1.32 9 2 C8.01 2 7.02 2 6 2 C6 4.31 6 6.62 6 9 C5.34 9 4.68 9 4 9 C4 6.69 4 4.38 4 2 C2.68 2 1.36 2 0 2 C0 1.34 0 0.68 0 0 Z " fill="#86B9D0" transform="translate(70,99)"/>
<path d="M0 0 C1.98 0 3.96 0 6 0 C5.01 1.98 4.02 3.96 3 6 C0.69 6 -1.62 6 -4 6 C-2.68 5.34 -1.36 4.68 0 4 C0 2.68 0 1.36 0 0 Z " fill="#1F2E50" transform="translate(18,64)"/>
<path d="M0 0 C2.97 0.495 2.97 0.495 6 1 C4.79157144 5.43090471 3.48331435 7.98112756 0 11 C0.29296875 9.01432292 0.5859375 7.02864583 0.87890625 5.04296875 C1.13904799 2.7974658 1.13904799 2.7974658 0 0 Z " fill="#568BB9" transform="translate(49,43)"/>
<path d="M0 0 C4.62 0 9.24 0 14 0 C14.33 0.66 14.66 1.32 15 2 C10.05 2.33 5.1 2.66 0 3 C0 2.01 0 1.02 0 0 Z " fill="#5E91B6" transform="translate(67,40)"/>
<path d="M0 0 C1.32 0.33 2.64 0.66 4 1 C3.34 1 2.68 1 2 1 C2 1.66 2 2.32 2 3 C3.32 2.67 4.64 2.34 6 2 C6 3.65 6 5.3 6 7 C5.01 7 4.02 7 3 7 C3 6.34 3 5.68 3 5 C2.34 5 1.68 5 1 5 C0.67 5.66 0.34 6.32 0 7 C0 4.69 0 2.38 0 0 Z " fill="#293F6E" transform="translate(38,60)"/>
<path d="M0 0 C1.10370043 3.3111013 0.92673641 5.24748949 0.5625 8.6875 C0.46066406 9.68136719 0.35882813 10.67523438 0.25390625 11.69921875 C0.12822266 12.83810547 0.12822266 12.83810547 0 14 C-0.33 13.01 -0.66 12.02 -1 11 C-1.66 11 -2.32 11 -3 11 C-3 10.34 -3 9.68 -3 9 C-3.66 8.67 -4.32 8.34 -5 8 C-4.34 8 -3.68 8 -3 8 C-3 7.01 -3 6.02 -3 5 C-2.34 5 -1.68 5 -1 5 C-0.67 3.35 -0.34 1.7 0 0 Z " fill="#649CCE" transform="translate(32,51)"/>
<path d="M0 0 C-0.27489191 4.03174806 -0.53491576 5.56894631 -3.5625 8.375 C-4.366875 8.91125 -5.17125 9.4475 -6 10 C-5.38909774 3.52443609 -5.38909774 3.52443609 -3.5625 1.0625 C-2 0 -2 0 0 0 Z " fill="#436D9C" transform="translate(42,30)"/>
<path d="M0 0 C2.97 0.495 2.97 0.495 6 1 C5.67 1.99 5.34 2.98 5 4 C1.34742296 5.62336757 -1.19362399 6.46399077 -5 5 C-4.175 4.360625 -3.35 3.72125 -2.5 3.0625 C-1.675 2.381875 -0.85 1.70125 0 1 C0 0.67 0 0.34 0 0 Z " fill="#2F4870" transform="translate(50,21)"/>
<path d="M0 0 C2.64 0 5.28 0 8 0 C8.5625 1.9375 8.5625 1.9375 9 4 C8 5 8 5 5.4375 5.0625 C4.2309375 5.0315625 4.2309375 5.0315625 3 5 C4.32 4.67 5.64 4.34 7 4 C7 3.34 7 2.68 7 2 C5.02 2 3.04 2 1 2 C0.67 2.99 0.34 3.98 0 5 C0 3.35 0 1.7 0 0 Z " fill="#97D1E2" transform="translate(91,99)"/>
<path d="M0 0 C3.71599191 -0.20086443 4.77208445 -0.1519437 8 2 C7.67 3.65 7.34 5.3 7 7 C6.01 7 5.02 7 4 7 C2 4 2 4 2 1 C1.34 0.67 0.68 0.34 0 0 Z " fill="#263861" transform="translate(23,67)"/>
<path d="M0 0 C1.79133978 -0.05391993 3.58313899 -0.09275571 5.375 -0.125 C6.37273437 -0.14820312 7.37046875 -0.17140625 8.3984375 -0.1953125 C11 0 11 0 13 2 C12.01 2.495 12.01 2.495 11 3 C11.66 3.66 12.32 4.32 13 5 C10.23723823 4.47731534 7.6739124 3.89130413 5 3 C5 2.34 5 1.68 5 1 C3.35 1 1.7 1 0 1 C0 0.67 0 0.34 0 0 Z " fill="#578AB3" transform="translate(66,31)"/>
<path d="M0 0 C0.66 0 1.32 0 2 0 C2 0.66 2 1.32 2 2 C2.66 2.33 3.32 2.66 4 3 C3.0409375 4.11375 3.0409375 4.11375 2.0625 5.25 C0.21666593 7.7111121 -0.56069174 9.03466926 -1 12 C-1.66 11.67 -2.32 11.34 -3 11 C-3.36923077 6.44615385 -3.36923077 6.44615385 -1.5 4.1875 C-1.005 3.795625 -0.51 3.40375 0 3 C-0.66 3 -1.32 3 -2 3 C-1 1 -1 1 0 0 Z " fill="#36557F" transform="translate(37,27)"/>
<path d="M0 0 C4.99911924 0.47610659 7.97832683 2.03162219 12 5 C10.3125 5.6875 10.3125 5.6875 8 6 C7.175 5.484375 6.35 4.96875 5.5 4.4375 C4.675 3.963125 3.85 3.48875 3 3 C0.69712207 3.69140351 0.69712207 3.69140351 -1 5 C-0.34 4.01 0.32 3.02 1 2 C0.67 1.34 0.34 0.68 0 0 Z " fill="#3B4D90" transform="translate(40,84)"/>
<path d="M0 0 C1.32 0.33 2.64 0.66 4 1 C3.71872579 2.48117801 3.42466268 3.95993249 3.125 5.4375 C2.96257813 6.26121094 2.80015625 7.08492187 2.6328125 7.93359375 C2.42398438 8.61550781 2.21515625 9.29742187 2 10 C1.01 10.495 1.01 10.495 0 11 C0 7.37 0 3.74 0 0 Z " fill="#4875A5" transform="translate(47,45)"/>
<path d="M0 0 C1.79158489 -0.02696365 3.58328473 -0.04637917 5.375 -0.0625 C6.37273437 -0.07410156 7.37046875 -0.08570312 8.3984375 -0.09765625 C11 0 11 0 13 1 C12.34 2.98 11.68 4.96 11 7 C10.67 7 10.34 7 10 7 C10 5.02 10 3.04 10 1 C7.03 1 4.06 1 1 1 C0.67 1.66 0.34 2.32 0 3 C0 2.01 0 1.02 0 0 Z " fill="#2C385D" transform="translate(69,98)"/>
<path d="M0 0 C0 0.99 0 1.98 0 3 C-2.31 3.66 -4.62 4.32 -7 5 C-7.66 3.68 -8.32 2.36 -9 1 C-4.545 0.505 -4.545 0.505 0 0 Z " fill="#6257B5" transform="translate(71,66)"/>
<path d="M0 0 C0.33 0 0.66 0 1 0 C1 2.64 1 5.28 1 8 C-1.97 7.505 -1.97 7.505 -5 7 C-4.67 6.01 -4.34 5.02 -4 4 C-2.66666667 3.33333333 -1.33333333 2.66666667 0 2 C0 1.34 0 0.68 0 0 Z " fill="#2E2A69" transform="translate(90,60)"/>
<path d="M0 0 C1.98 0 3.96 0 6 0 C5.67 1.98 5.34 3.96 5 6 C4.01 6 3.02 6 2 6 C2 5.01 2 4.02 2 3 C1.34 3 0.68 3 0 3 C0 2.01 0 1.02 0 0 Z " fill="#3D6693" transform="translate(68,34)"/>
<path d="M0 0 C2.97 0 5.94 0 9 0 C8.67 1.32 8.34 2.64 8 4 C7.34 4 6.68 4 6 4 C6 3.01 6 2.02 6 1 C5.34 1 4.68 1 4 1 C4 1.99 4 2.98 4 4 C3.34 4 2.68 4 2 4 C2 3.34 2 2.68 2 2 C1.34 2 0.68 2 0 2 C0 1.34 0 0.68 0 0 Z " fill="#3C6391" transform="translate(68,42)"/>
<path d="M0 0 C0.99 0.33 1.98 0.66 3 1 C3 2.32 3 3.64 3 5 C2.34 5 1.68 5 1 5 C0.67 4.34 0.34 3.68 0 3 C-0.99 3.99 -1.98 4.98 -3 6 C-3.66 5.67 -4.32 5.34 -5 5 C-3.35 3.35 -1.7 1.7 0 0 Z " fill="#252155" transform="translate(87,89)"/>
<path d="M0 0 C2.875 -0.1875 2.875 -0.1875 6 0 C6.66 0.99 7.32 1.98 8 3 C5.39417629 3.93065133 4.35801776 4.14917407 1.75 3.0625 C1.1725 2.711875 0.595 2.36125 0 2 C0 1.34 0 0.68 0 0 Z " fill="#1F2F53" transform="translate(28,87)"/>
<path d="M0 0 C0.66 0.33 1.32 0.66 2 1 C1.95875 2.093125 1.9175 3.18625 1.875 4.3125 C1.67925334 8.08892229 1.67925334 8.08892229 4 11 C3.01 11 2.02 11 1 11 C0.34 10.34 -0.32 9.68 -1 9 C-0.9765625 6.8359375 -0.9765625 6.8359375 -0.625 4.375 C-0.51414063 3.55773437 -0.40328125 2.74046875 -0.2890625 1.8984375 C-0.19367187 1.27195312 -0.09828125 0.64546875 0 0 Z " fill="#242D5C" transform="translate(44,68)"/>
<path d="M0 0 C0.763125 0.309375 1.52625 0.61875 2.3125 0.9375 C4.18789677 1.67893593 6.08684652 2.36228217 8 3 C7 5 7 5 5.125 5.8125 C3 6 3 6 1.25 4.75 C0 3 0 3 0 0 Z " fill="#273858" transform="translate(31,24)"/>
<path d="M0 0 C0.99 0.33 1.98 0.66 3 1 C2.01 2.98 1.02 4.96 0 7 C-0.99 6.34 -1.98 5.68 -3 5 C-2.67 4.01 -2.34 3.02 -2 2 C-1.34 2 -0.68 2 0 2 C0 1.34 0 0.68 0 0 Z " fill="#252158" transform="translate(97,76)"/>
<path d="M0 0 C2.66666667 0 5.33333333 0 8 0 C8 0.99 8 1.98 8 3 C5.36 3 2.72 3 0 3 C0 2.01 0 1.02 0 0 Z " fill="#405296" transform="translate(48,74)"/>
<path d="M0 0 C0 0.66 0 1.32 0 2 C-2.97 2 -5.94 2 -9 2 C-9.33 1.34 -9.66 0.68 -10 0 C-3.375 -1.125 -3.375 -1.125 0 0 Z " fill="#6550B9" transform="translate(71,75)"/>
<path d="M0 0 C0.33 0 0.66 0 1 0 C1.33 3.3 1.66 6.6 2 10 C1.01 9.67 0.02 9.34 -1 9 C-1 8.34 -1 7.68 -1 7 C-1.20625 6.360625 -1.4125 5.72125 -1.625 5.0625 C-2 3 -2 3 0 0 Z " fill="#53429A" transform="translate(81,65)"/>
<path d="M0 0 C1.36421031 2.72842061 0.87807211 4.60953318 0.5625 7.625 C0.40974609 9.12933594 0.40974609 9.12933594 0.25390625 10.6640625 C0.17011719 11.43492188 0.08632813 12.20578125 0 13 C-0.66 13 -1.32 13 -2 13 C-2.33 11.68 -2.66 10.36 -3 9 C-2.34 9 -1.68 9 -1 9 C-1.20625 7.88625 -1.4125 6.7725 -1.625 5.625 C-1.74875 4.42875 -1.8725 3.2325 -2 2 C-1.34 1.34 -0.68 0.68 0 0 Z " fill="#2F4A78" transform="translate(44,42)"/>
<path d="M0 0 C0.66 0.33 1.32 0.66 2 1 C-0.625 5.875 -0.625 5.875 -4 7 C-5.66710346 8.49985609 -5.66710346 8.49985609 -7 10 C-5.6062718 5.56541027 -3.39417765 3.12621626 0 0 Z " fill="#4D779C" transform="translate(47,37)"/>
<path d="M0 0 C1.98 0 3.96 0 6 0 C6 1.65 6 3.3 6 5 C5.01 5.495 5.01 5.495 4 6 C2.68 4.02 1.36 2.04 0 0 Z " fill="#4473A1" transform="translate(58,33)"/>
<path d="M0 0 C0.33 1.32 0.66 2.64 1 4 C0.34 4 -0.32 4 -1 4 C-1.33 4.99 -1.66 5.98 -2 7 C-2.66 6.67 -3.32 6.34 -4 6 C-4.625 3.9375 -4.625 3.9375 -5 2 C-3.35 2 -1.7 2 0 2 C0 1.34 0 0.68 0 0 Z " fill="#436C9E" transform="translate(30,52)"/>
<path d="M0 0 C8.57142857 1 8.57142857 1 12 2 C11.34 2 10.68 2 10 2 C10 2.66 10 3.32 10 4 C8.72125 3.896875 7.4425 3.79375 6.125 3.6875 C5.04605469 3.60048828 5.04605469 3.60048828 3.9453125 3.51171875 C2 3 2 3 0 0 Z " fill="#3C5F8D" transform="translate(20,50)"/>
<path d="M0 0 C2.475 0.495 2.475 0.495 5 1 C5 3.97 5 6.94 5 10 C4.67 10 4.34 10 4 10 C3.566875 8.2984375 3.566875 8.2984375 3.125 6.5625 C2.75375 5.386875 2.3825 4.21125 2 3 C1.34 2.67 0.68 2.34 0 2 C0 1.34 0 0.68 0 0 Z " fill="#4664A5" transform="translate(77,49)"/>
<path d="M0 0 C0.33 0.66 0.66 1.32 1 2 C0.06553465 4.03144641 -0.93224776 6.03533587 -2 8 C-2.33 8 -2.66 8 -3 8 C-3 6.35 -3 4.7 -3 3 C-3.99 2.67 -4.98 2.34 -6 2 C-3.99967627 0.99983813 -2.16874252 0.50603992 0 0 Z " fill="#466D98" transform="translate(33,41)"/>
<path d="M0 0 C0.99 0 1.98 0 3 0 C3.1875 2.375 3.1875 2.375 3 5 C2.01 5.66 1.02 6.32 0 7 C0 4.69 0 2.38 0 0 Z " fill="#1F1D4A" transform="translate(86,68)"/>
<path d="M0 0 C0.99 0.495 0.99 0.495 2 1 C2.59355614 3.64860427 2.74209269 6.29197322 3 9 C2.01 9 1.02 9 0 9 C0 6.03 0 3.06 0 0 Z " fill="#4367A5" transform="translate(47,58)"/>
<path d="M0 0 C0.66 0 1.32 0 2 0 C2.6875 2.8125 2.6875 2.8125 3 6 C2.01 6.99 1.02 7.98 0 9 C0 6.03 0 3.06 0 0 Z " fill="#9F82E0" transform="translate(97,56)"/>
<path d="M0 0 C4.875 2.625 4.875 2.625 6 6 C4.0625 5.6875 4.0625 5.6875 2 5 C1.67 4.01 1.34 3.02 1 2 C0.34 1.67 -0.32 1.34 -1 1 C-0.67 0.67 -0.34 0.34 0 0 Z " fill="#2A346C" transform="translate(43,86)"/>
<path d="M0 0 C0.763125 0.0825 1.52625 0.165 2.3125 0.25 C2.3125 0.91 2.3125 1.57 2.3125 2.25 C0.9925 2.25 -0.3275 2.25 -1.6875 2.25 C-2.0175 3.24 -2.3475 4.23 -2.6875 5.25 C-3.6775 4.92 -4.6675 4.59 -5.6875 4.25 C-3.34903846 0.31153846 -3.34903846 0.31153846 0 0 Z " fill="#5684AB" transform="translate(92.6875,27.75)"/>
</svg>
